<ttFont>
<head>
    <!-- Most of this table will be recalculated by the compiler -->
    <tableVersion value="1.0"/>
    <fontRevision value="2.004"/>
    <checkSumAdjustment value="0xde184699"/>
    <magicNumber value="0x5f0f3cf5"/>
    <flags value="00000000 00000011"/>
    <unitsPerEm value="1000"/>
    <created value="Thu Oct  8 10:01:38 2009"/>
    <modified value="Thu Oct  8 10:01:38 2009"/>
    <xMin value="-477"/>
    <yMin value="-316"/>
    <xMax value="1023"/>
    <yMax value="985"/>
    <macStyle value="00000000 00000010"/>
    <lowestRecPPEM value="3"/>
    <fontDirectionHint value="2"/>
    <indexToLocFormat value="0"/>
    <glyphDataFormat value="0"/>
  </head>
          <CharString index="0">
            490 30 rmoveto
            170 callgsubr
            -20 hhcurveto
            -56 383 rlineto
            23 -3 -5 14 -39 hhcurveto
            -7 hlineto
            -38 -9 -13 -24 -12 hvcurveto
            -184 -383 164 callgsubr
            13 hhcurveto
            73 hlineto
            14 64 callsubr
            30 5 -31 0 -6 hhcurveto
            22 47 rlineto
            179 hlineto
            6 -46 rlineto
            -29 -11 -19 -12 -2 217 callgsubr
            73 4 callsubr
            -130 139 rmoveto
            -141 hlineto
            110 233 rlineto
            return
          </CharString>
          <CharString index="1">
            569 37 callsubr
            -89 -44 callgsubr
            24 0 28 hhcurveto
            -41 -245 rlineto
            -90 -15 -80 -23 -36 hhcurveto
            -41 -68 25 88 15 hvcurveto
            41 245 rlineto
            204 callgsubr
            -89 -44 callgsubr
            24 0 28 hhcurveto
            -42 -249 rlineto
            -107 -18 82 -63 89 hhcurveto
            93 100 65 105 17 hvcurveto
            42 249 22 callgsubr
            return
          </CharString>
          <CharString index="2">
            rmoveto
            19 3 -9 12 -20 hhcurveto
            -24 -7 -17 -12 -4 hvcurveto
            -20 -8 -68 0 -42 hhcurveto
            -43 -67 0 20 -2 hvcurveto
            12 -1 17 -24 -19 -14 -12 -19 -3 vhcurveto
            -82 -14 110 0 66 hhcurveto
            66 110 0 82 14 hvcurveto
            return
          </CharString>
          <CharString index="3">
            rmoveto
            20 3 -13 15 -20 hhcurveto
            0 -8 0 -11 -66 callgsubr
            -2 144 callgsubr
            143 59 26 11 6 13 2 11 rlinecurve
            endchar
          </CharString>
          <CharString index="4">
            rmoveto
            46 8 -25 29 -33 hhcurveto
            -30 -21 -22 -24 -4 hvcurveto
            -29 -5 19 -19 25 hhcurveto
            4 6 1 2 5 hvcurveto
            -19 -47 -38 -12 -9 -3 -7 -2 -15 -4 -3 -15 rrcurveto
            -11 -1 9 -13 12 hhcurveto
            24 84 41 82 14 hvcurveto
            endchar
          </CharString>
          <CharString index="5">
            7 41 -15 31 -19 21 -32 33 -36 7 -64 12 -19 4 -36 6 -16 4 -62 13 -15 26 4 23 rrcurveto
            31 5 48 35 73 hhcurveto
            114 3 -53 -25 1 hvcurveto
            -25 2 19 0 9 hhcurveto
            35 4 199 callsubr
            13 82 rlineto
            15 3 4 26 -31 hhcurveto
            -17 -15 -13 -17 -7 hvcurveto
            24 -36 -54 6 -39 hhcurveto
            -114 -78 -65 -66 -11 hvcurveto
            -7 -44 21 -30 23 -19 30 -24 24 -5 85 -16 64 -12 rcurveline
            29 -7 41 -23 -7 -41 rrcurveto
            -26 -4 -36 -49 -92 hhcurveto
            -8 -51 0 11 -37 hvcurveto
            -43 13 -2 24 1 21 rrcurveto
            return
          </CharString>
          <CharString index="6">
            rmoveto
            4 25 -11 22 -19 11 rrcurveto
            11 -20 -24 3 -27 hhcurveto
            -46 -52 -21 -50 -9 hvcurveto
            -16 -2 10 -13 17 hhcurveto
            16 16 128 callsubr
            4 1 12 9 25 hhcurveto
            136 callsubr
            hvcurveto
            2 -1 2 -2 0 vvcurveto
            -3 -1 -45 -19 -38 -22 -8 -45 rlinecurve
            -2 -14 rlineto
            -16 -3 11 -13 16 219 callgsubr
            3 hvcurveto
            2 14 2 9 12 9 33 14 rlinecurve
            22 9 21 18 4 25 rrcurveto
            endchar
          </CharString>
          <CharString index="7">
            -100 callgsubr
            285 -26 callgsubr
            return
          </CharString>
          <CharString index="8">
            rmoveto
            4 25 -12 22 -19 11 rrcurveto
            11 -20 -23 3 -27 hhcurveto
            -46 -53 -21 -50 -8 hvcurveto
            -16 -3 153 callgsubr
            3 hvcurveto
            4 13 9 25 136 callsubr
            vhcurveto
            1 75 callgsubr
            -45 -19 -39 -22 -7 -45 rlinecurve
            -3 -14 rlineto
            -16 -2 10 -13 16 hhcurveto
            16 16 128 callsubr
            3 14 1 9 13 9 33 95 callgsubr
            5 25 rrcurveto
            endchar
          </CharString>
          <CharString index="9">
            593 11 callsubr
            -106 40 callsubr
            -79 -475 rlineto
            -1 hlineto
            -101 500 rlineto
            33 -7 -14 3 -27 hhcurveto
            -68 14 callgsubr
            -82 -489 -59 callgsubr
            106 4 callgsubr
            -24 0 -16 hhcurveto
            -25 hlineto
            79 475 rlineto
            1 hlineto
            101 -500 rlineto
            -35 7 16 -1 26 hhcurveto
            30 13 3 38 6 hvcurveto
            85 509 60 callsubr
            return
          </CharString>
          <CharString index="10">
            rmoveto
            -111 43 -5 2 -7 0 -7 -2 rlinecurve
            -125 -43 -38 -13 9 -54 38 11 rlinecurve
            114 33 104 -33 34 -11 27 54 -33 13 rlinecurve
            return
          </CharString>
          <CharString index="11">
            rmoveto
            25 5 -17 20 -25 hhcurveto
            -26 -22 -20 -25 -5 hvcurveto
            -25 -4 16 84 callsubr
            23 103 callgsubr
            165 hmoveto
            25 5 -17 20 -25 hhcurveto
            -26 -22 -20 -25 -5 hvcurveto
            -25 -4 16 84 callsubr
            23 103 callgsubr
            return
          </CharString>
          <CharString index="12">
            132 callsubr
            24 0 16 hhcurveto
            return
          </CharString>
          <CharString index="13">
            536 240 76 callgsubr
            -119 -95 callsubr
            42 hlineto
            -112 -31 -57 -47 -53 hhcurveto
            -81 -58 108 147 25 hvcurveto
            153 25 98 103 78 hhcurveto
            35 59 -23 -108 -1 hvcurveto
            -17 -1 4 -12 26 hhcurveto
            35 3 21 20 4 hvcurveto
            23 139 rlineto
            16 3 4 25 -30 hhcurveto
            -21 -7 -11 -34 -21 hvcurveto
            30 -30 -37 15 -42 hhcurveto
            -120 -126 -135 -181 -30 hvcurveto
            -184 -31 82 -133 119 hhcurveto
            57 47 30 23 24 hvcurveto
            return
          </CharString>
          <CharString index="14">
            0 -68 callsubr
            return
          </CharString>
          <CharString index="15">
            565 501 rmoveto
            4 26 0 36 -38 1 rrcurveto
            -3 hlineto
            -27 -2 -21 -21 -4 -23 -2 -17 6 -17 15 -7 rrcurveto
            -8 -6 -6 -4 -5 hhcurveto
            -5 hlineto
            15 -35 -52 0 -45 hhcurveto
            -61 -74 0 -38 -38 hvcurveto
            -38 -39 -16 -95 -12 -72 -12 -72 -15 -95 24 -38 rrcurveto
            -39 26 74 0 61 hhcurveto
            61 75 0 39 38 hvcurveto
            38 38 15 95 12 72 10 60 13 75 -10 46 27 17 20 33 6 34 rrcurveto
            -133 -256 rmoveto
            -9 -55 -13 -76 -26 -31 rrcurveto
            -30 -25 -48 0 -41 hhcurveto
            -40 -48 0 30 -15 hvcurveto
            -16 31 13 76 9 55 8 51 12 68 25 28 rrcurveto
            27 25 48 0 40 hhcurveto
            41 48 0 -27 15 hvcurveto
            17 -28 -12 -68 -8 -51 rrcurveto
            return
          </CharString>
          <CharString index="16">
            602 643 rmoveto
            5 30 -6 37 -37 1 -31 -1 -24 -24 -4 -25 -3 -21 9 -19 18 -7 -7 -9 -8 -5 -8 -1 rrcurveto
            23 -34 -56 0 -51 hhcurveto
            -65 -75 0 -50 -41 hvcurveto
            -41 -51 -21 -124 -15 -92 -15 -91 -21 -124 25 -51 rrcurveto
            -50 23 75 0 65 hhcurveto
            66 74 0 50 42 hvcurveto
            41 51 21 124 15 91 13 80 18 104 -13 59 35 18 25 38 6 39 rrcurveto
            -152 -325 rmoveto
            -13 -77 -17 -106 -28 -42 rrcurveto
            -39 -27 -51 -4 -45 hhcurveto
            -45 -48 4 39 -13 hvcurveto
            -15 42 17 106 13 77 12 70 16 96 28 38 rrcurveto
            38 27 50 1 44 hhcurveto
            45 48 -1 -38 15 hvcurveto
            15 -38 -16 -96 -12 -70 rrcurveto
            return
          </CharString>
          <CharString index="17">
            610 580 rmoveto
            31 5 -26 -11 callgsubr
            -79 40 callsubr
            -100 -333 -18 -61 -16 -52 -5 -28 rlinecurve
            -1 hlineto
            4 64 -14 198 6 vvcurveto
            23 -5 -23 0 -9 hhcurveto
            -10 -20 0 -22 -13 hvcurveto
            -5 -7 -80 -200 -15 -62 rrcurveto
            -1 hlineto
            1 5 2 19 2 54 14 396 rcurveline
            25 4 callgsubr
            -24 0 -16 hhcurveto
            -79 hlineto
            -15 -26 -70 callsubr
            9 hhcurveto
            1 hlineto
            -15 -523 rlineto
            -35 -1 24 0 12 hhcurveto
            9 20 0 20 13 hvcurveto
            4 7 93 234 11 40 rrcurveto
            1 hlineto
            -4 -45 16 -229 1 -2 rrcurveto
            -25 3 26 0 7 hhcurveto
            12 24 0 35 11 hvcurveto
            159 523 rlineto
            11 127 callsubr
            return
          </CharString>
          <CharString index="18">
            25 4 -17 20 -25 hhcurveto
            -26 -22 -20 -25 -4 hvcurveto
            -25 -4 15 84 callsubr
            24 103 callgsubr
            return
          </CharString>
          <CharString index="19">
            -20 hstemhm
            hintmask 11100000
            -107 callsubr
            return
          </CharString>
          <CharString index="20">
            576 441 rmoveto
            182 callsubr
            -52 41 callsubr
            19 hhcurveto
            -89 -261 -14 -42 -7 -27 -3 -9 rlinecurve
            -1 hlineto
            2 42 -19 142 0 vvcurveto
            21 -6 -15 6 -20 hhcurveto
            -38 -6 -11 -72 -32 hvcurveto
            -12 -27 -33 -74 -8 -28 rrcurveto
            -1 hlineto
            2 79 -1 261 rlineto
            19 27 175 callsubr
            -52 hlineto
            -15 -27 -90 callgsubr
            -3 -13 4 -14 24 -3 4 -378 rcurveline
            -21 4 -18 33 12 15 0 18 16 vhcurveto
            7 8 67 145 19 49 rrcurveto
            1 hlineto
            1 -29 18 -161 5 -11 rrcurveto
            -19 10 18 0 10 hhcurveto
            33 10 16 23 8 hvcurveto
            130 378 24 3 8 14 3 13 rlinecurve
            return
          </CharString>
          <CharString index="21">
            -13 11 16 -21 34 hhcurveto
            27 31 221 callgsubr
            22 15 33 22 3 18 rrcurveto
            endchar
          </CharString>
          <CharString index="22">
            202 callsubr
            54 69 -12 69 -10 69 91 69 -59 69 -10 69 -26 69 -43 69 hintmask 0100000000010000
            -60 callsubr
            hintmask 1010001010000000
            -75 callgsubr
            hintmask 0010100101000000
            -75 callsubr
            hintmask 0001000000100000
            17 callgsubr
            hintmask 0001000000001000
            17 callsubr
            hintmask 0000100100000000
            33 5 -6 9 -34 hhcurveto
            -340 hlineto
            hintmask 0001010000000000
            -14 callsubr
            hintmask 0000100100000000
            -31 -5 24 0 28 212 callsubr
            -31 callgsubr
            hintmask 0100000000000000
            33 10 8 34 6 hvcurveto
            return
          </CharString>
          <CharString index="23">
            -12 -73 -52 callsubr
            4 21 20 3 hvcurveto
            9 53 rlineto
            133 53 callsubr
            -52 -95 callsubr
            173 4 callgsubr
            -24 0 -16 hhcurveto
            -52 90 callsubr
            132 hlineto
            -9 -53 -52 callsubr
            4 21 20 3 hvcurveto
            return
          </CharString>
          <CharString index="24">
            -67 callgsubr
            -5 return
          </CharString>
          <CharString index="25">
            rmoveto
            -107 76 -8 6 -12 0 -10 -6 rlinecurve
            -131 -75 -36 -21 23 -49 36 20 rlinecurve
            113 62 93 -62 30 -20 40 48 -31 21 rlinecurve
            return
          </CharString>
          <CharString index="26">
            hlineto
            -88 callgsubr
            return
          </CharString>
          <CharString index="27">
            526 79 rmoveto
            18 3 -7 14 -25 hhcurveto
            -20 -15 -10 -20 -4 hvcurveto
            -19 -5 -9 -9 -9 hhcurveto
            -25 5 33 34 6 hvcurveto
            9 51 5 32 -38 32 19 10 58 36 10 58 rrcurveto
            67 11 -62 66 -114 hhcurveto
            -155 -21 callsubr
            return
          </CharString>
          <CharString index="28">
            602 11 callsubr
            -104 132 callsubr
            22 0 24 hhcurveto
            -145 -236 -5 51 -54 164 -6 21 rlinecurve
            24 22 24 callsubr
            -104 -95 callsubr
            21 hlineto
            97 -306 rlineto
            return
          </CharString>
          <CharString index="29">
            42 61 25 61 25 61 hstemhm
            38 130 -25 130 -37 59 -57 59 -59 130 -36 59 -33 130 -120 130 -49 59 -47 59 -32 59 cntrmask 1110000000000000
            hintmask 1110000010010000
            498 113 callsubr
            -7 -42 rlineto
            -110 hlineto
            hintmask 1110000001000000
            26 153 rlineto
            hintmask 1110000000001000
            103 hlineto
            hintmask 1110000100010000
            157 callgsubr
            -103 hlineto
            hintmask 1110000010000100
            23 136 rlineto
            102 103 callsubr
            hintmask 1111010000001000
            33 5 -6 9 -34 hhcurveto
            -254 216 callgsubr
            -3 -14 7 -11 13 -4 -154 -351 rcurveline
            -10 -29 0 -30 -5 217 callgsubr
            46 hlineto
            14 64 callsubr
            hintmask 1110100000000000
            1 3 4 23 -30 4 29 67 rcurveline
            112 hlineto
            -11 -67 rlineto
            hintmask 1110000100010000
            -30 -3 -5 -27 0 vvcurveto
            -31 -5 29 0 13 hhcurveto
            174 hlineto
            hintmask 1110001000100000
            -7 callgsubr
            -203 147 rmoveto
            -95 hlineto
            97 222 rlineto
            hintmask 1110010010000000
            35 hlineto
            return
          </CharString>
          <CharString index="30">
            512 168 rmoveto
            33 6 -24 0 -11 hhcurveto
            -9 -23 0 -29 -7 hvcurveto
            -98 -24 -85 -24 -41 hhcurveto
            -91 -68 106 150 25 hvcurveto
            149 25 105 106 89 hhcurveto
            60 47 -46 -81 hvcurveto
            -17 1 -1 -16 30 hhcurveto
            35 3 21 20 4 hvcurveto
            23 139 rlineto
            16 3 4 25 -30 hhcurveto
            -18 -7 -10 -7 -6 hvcurveto
            -3 -4 0 -2 -17 -25 rrcurveto
            28 -29 -42 20 -51 hhcurveto
            -129 -135 -134 -182 -30 hvcurveto
            return
          </CharString>
          <CharString index="31">
            528 37 callsubr
            -128 216 callgsubr
            -30 -5 29 0 13 hhcurveto
            49 hlineto
            -50 -298 -3 -19 -2 -13 -33 -15 rlinecurve
            -13 -28 198 callsubr
            -8 -41 0 10 -23 hvcurveto
            1 4 2 4 1 7 rrcurveto
            26 4 -17 16 -21 hhcurveto
            -23 -22 -17 -26 -4 hvcurveto
            -85 -14 115 0 39 hhcurveto
            82 91 31 85 14 hvcurveto
            51 303 22 callgsubr
            return
          </CharString>
          <CharString index="32">
            10 63 rlineto
            17 3 4 25 148 callsubr
            -24 -19 -3 hvcurveto
            -124 hlineto
            23 136 rlineto
            234 hlineto
            return
          </CharString>
          <CharString index="33">
            -58 callgsubr
            81 32 callgsubr
            return
          </CharString>
          <CharString index="34">
            rmoveto
            37 21 -23 49 -36 -20 -114 -62 rcurveline
            -92 62 -30 20 -40 -48 31 -21 rlinecurve
            107 -76 8 -6 12 0 10 6 rlinecurve
            endchar
          </CharString>
          <CharString index="35">
            -96 callsubr
            endchar
          </CharString>
          <CharString index="36">
            30 5 hvcurveto
            return
          </CharString>
          <CharString index="37">
            -89 callgsubr
            28 0 return
          </CharString>
          <CharString index="38">
            -10 -10 -1 -32 -24 hvcurveto
            12 -16 -38 21 -53 hhcurveto
            -118 -116 -108 -136 -23 hvcurveto
            -139 -23 83 -105 115 hhcurveto
            41 42 14 28 37 hvcurveto
            -34 -6 28 0 7 hhcurveto
            35 4 22 226 callsubr
            117 rlineto
            19 26 0 31 6 hvcurveto
            return
          </CharString>
          <CharString index="39">
            -30 -5 hvcurveto
            return
          </CharString>
          <CharString index="40">
            -39 -7 25 -47 56 hhcurveto
            35 38 24 29 26 hvcurveto
            -59 callsubr
            return
          </CharString>
          <CharString index="41">
            480 42 rmoveto
            11 64 rlineto
            17 3 4 25 -34 hhcurveto
            95 callsubr
            -8 -45 rlineto
            -252 hlineto
            364 346 13 12 1 8 2 10 rlinecurve
            35 6 -24 0 -18 hhcurveto
            -319 hlineto
            -33 -11 -8 -34 -5 hvcurveto
            -8 -49 -51 callgsubr
            5 30 rlineto
            236 hlineto
            -364 -346 -13 -12 -1 -8 -2 -10 rlinecurve
            -35 -6 24 0 18 hhcurveto
            335 hlineto
            -7 callgsubr
            return
          </CharString>
          <CharString index="42">
            hstemhm
            154 69 13 69 -68 69 -47 69 hintmask 01001100
            -43 callgsubr
            hintmask 10001010
            -24 callsubr
            hintmask 01000001
            22 128 178 222 rlineto
            26 220 callsubr
            return
          </CharString>
          <CharString index="43">
            -8 80 callsubr
            94 callsubr
            127 69 -10 69 hintmask 1010110101000000
            -80 callsubr
            114 callgsubr
            -74 callsubr
            hintmask 0111001010000000
            -5 callsubr
            hintmask 1001100110000000
            -36 callgsubr
            hintmask 0000000001000000
            79 42 -36 -36 -6 hvcurveto
            return
          </CharString>
          <CharString index="44">
            50 callsubr
            91 69 -59 69 -10 69 -26 69 -43 69 hintmask 0100000000001000
            -60 callsubr
            hintmask 1010000101000000
            -75 callgsubr
            hintmask 0010100010100000
            -75 callsubr
            hintmask 0001000000010000
            17 callgsubr
            hintmask 0001000000000100
            17 callsubr
            hintmask 0000100010000000
            33 5 -6 9 -34 hhcurveto
            -340 hlineto
            hintmask 0001001000000000
            -14 callsubr
            hintmask 0000100010000000
            62 callsubr
            hintmask 1000000100000000
            -17 callgsubr
            hintmask 1000001000000000
            -31 callgsubr
            hintmask 0100000000000000
            33 10 8 34 6 hvcurveto
            return
          </CharString>
          <CharString index="45">
            519 305 rmoveto
            34 205 1 69 -61 28 rrcurveto
            26 51 1 8 0 vvcurveto
            5 28 -32 2 0 vvcurveto
            -21 -8 -17 -13 -6 hvcurveto
            -23 -46 rlineto
            2 -25 -21 0 -23 hhcurveto
            -185 -26 -27 -290 -48 hvcurveto
            -8 -45 -10 -65 -3 -48 -5 -78 5 -43 47 -22 rrcurveto
            -26 -51 -1 -8 0 vvcurveto
            -5 -28 32 -2 0 vvcurveto
            21 8 17 13 6 hvcurveto
            22 46 rlineto
            -2 26 21 0 23 179 callgsubr
            -114 253 rmoveto
            -239 -487 -18 16 -19 15 34 203 rlinecurve
            10 61 13 80 21 48 rrcurveto
            60 27 43 7 79 hhcurveto
            26 2 0 -1 10 hvcurveto
            5 6 -2 0 hvcurveto
            58 -252 rmoveto
            -10 -61 -13 -80 -21 -48 rrcurveto
            -60 -27 -43 -7 -79 hhcurveto
            -26 -2 0 1 -10 hvcurveto
            -5 -6 2 0 hvcurveto
            239 487 18 -16 19 -15 -34 -203 rlinecurve
            return
          </CharString>
          <CharString index="46">
            512 221 callsubr
            -21 0 -32 hhcurveto
            69 callgsubr
            32 21 24 callsubr
            -56 hlineto
            -41 -6 -14 -26 -14 hvcurveto
            -100 -202 -18 -36 -14 -29 -11 -29 rlinecurve
            -1 hlineto
            -2 47 -45 259 -1 6 rrcurveto
            24 -6 -25 0 -14 hhcurveto
            -56 132 callsubr
            21 0 32 hhcurveto
            -82 -489 92 callgsubr
            31 5 -21 0 -32 hhcurveto
            80 477 rlineto
            1 hlineto
            3 -46 32 -192 2 -13 4 -23 7 -38 4 -7 rrcurveto
            -8 4 11 -7 12 hhcurveto
            13 15 8 14 11 hvcurveto
            4 6 127 253 21 53 rrcurveto
            1 hlineto
            -80 -477 92 callgsubr
            return
          </CharString>
          <CharString index="47">
            501 122 callgsubr
            17 3 4 25 -34 hhcurveto
            95 callsubr
            return
          </CharString>
          <CharString index="48">
            9 9 -1 18 -6 7 -7 4 -21 -3 -6 -6 rrcurveto
            -14 -12 -24 -19 -18 hhcurveto
            -16 -22 13 22 3 hvcurveto
            return
          </CharString>
          <CharString index="49">
            28 35 -50 callgsubr
            return
          </CharString>
          <CharString index="50">
            -88 callsubr
            hintmask 00011000
            return
          </CharString>
          <CharString index="51">
            hlineto
            15 25 -94 callgsubr
            return
          </CharString>
          <CharString index="52">
            13 15 1 6 1 10 rrcurveto
            34 6 -22 0 -19 hhcurveto
            -334 hlineto
            -33 -9 -8 -33 -6 hvcurveto
            -12 -73 -52 callsubr
            4 21 20 3 hvcurveto
            9 53 rlineto
            258 hlineto
            -410 -485 -13 -15 -1 -6 -1 -10 rlinecurve
            -34 -6 22 0 19 hhcurveto
            352 hlineto
            return
          </CharString>
          <CharString index="53">
            rmoveto
            16 3 -13 16 -16 hhcurveto
            -11 -6 -5 -6 -8 hvcurveto
            return
          </CharString>
          <CharString index="54">
            554 381 rmoveto
            8 49 rlineto
            33 5 -6 9 -34 hhcurveto
            -373 hlineto
            -33 -11 -8 -34 -5 hvcurveto
            -8 -49 -51 callgsubr
            5 30 rlineto
            125 hlineto
            return
          </CharString>
          <CharString index="55">
            rlineto
            -19 -3 -4 -22 34 hhcurveto
            35 return
          </CharString>
          <CharString index="56">
            -38 callsubr
            hintmask 0001000000000000
            -86 callsubr
          </CharString>
          <CharString index="57">
            101 callgsubr
            27 159 -2 56 -65 18 11 20 17 35 1 4 rrcurveto
            19 3 -16 11 -13 hhcurveto
            -21 -8 -15 -17 -9 hvcurveto
            -25 -47 rlineto
            1 -11 -34 0 -13 hhcurveto
            -180 -24 -22 -222 -37 hvcurveto
            -26 -159 2 -56 65 -18 rrcurveto
            -11 -20 -18 -35 -4 vvcurveto
            -19 -4 17 -11 13 hhcurveto
            21 8 15 17 9 hvcurveto
            25 47 rlineto
            -1 11 34 0 13 162 callsubr
            22 222 37 hvcurveto
            -134 183 rmoveto
            -190 -353 -35 16 2 48 17 106 rlinecurve
            183 31 17 0 158 hhcurveto
            75 -183 rmoveto
            -183 -30 -17 0 -158 hhcurveto
            189 353 21 -9 21 -9 -26 -152 rlinecurve
            return
          </CharString>
          <CharString index="58">
            rmoveto
            32 6 -23 0 -17 hhcurveto
            -298 191 callsubr
            297 165 callsubr
          </CharString>
          <CharString index="59">
            -16 -3 -49 callgsubr
            return
          </CharString>
          <CharString index="60">
            rmoveto
            -10 15 -22 1 -17 -13 -89 -70 rcurveline
            -16 -13 -6 -22 11 -14 10 -15 22 -1 17 13 89 70 rcurveline
            16 13 6 22 -11 14 rrcurveto
            194 hmoveto
            -10 15 -22 1 -17 -13 -89 -70 rcurveline
            -16 -13 -6 -22 11 -14 10 -15 22 -1 17 13 89 70 rcurveline
            16 13 6 22 -11 14 rrcurveto
            endchar
          </CharString>
          <CharString index="61">
            208 callgsubr
            hintmask 01000100
            -79 callsubr
            hintmask 10001000
            -31 -183 -59 callgsubr
            119 4 callgsubr
            -24 0 -16 hhcurveto
            -25 hlineto
            hintmask 01000100
            31 183 198 306 rlineto
            21 -56 callsubr
            return
          </CharString>
          <CharString index="62">
            -16 16 hhcurveto
            11 7 5 6 8 hvcurveto
            return
          </CharString>
          <CharString index="63">
            12 73 rlineto
            31 5 -4 10 -34 hhcurveto
            return
          </CharString>
          <CharString index="64">
            498 130 rmoveto
            32 5 -27 0 -8 hhcurveto
            -31 -5 -20 -13 -3 hvcurveto
            -56 -15 -75 -20 -45 hhcurveto
            -96 -59 84 99 16 hvcurveto
            103 18 90 80 90 hhcurveto
            43 63 -20 -68 3 hvcurveto
            -12 2 -16 28 35 3 23 18 3 vhcurveto
            16 95 rlineto
            15 3 4 26 -31 hhcurveto
            -16 -8 -7 -28 -22 hvcurveto
            return
          </CharString>
          <CharString index="65">
            rlineto
            30 4 callsubr
            31 5 198 callsubr
            -114 -44 callgsubr
            23 0 34 hhcurveto
            return
          </CharString>
          <CharString index="66">
            hvcurveto
            50 hmoveto
            37 6 -35 35 -56 hhcurveto
            -56 -47 -35 -37 -6 hvcurveto
            -37 -6 35 -35 56 hhcurveto
            56 47 35 37 6 hvcurveto
            return
          </CharString>
          <CharString index="67">
            25 hlineto
            -82 -489 rlineto
            -25 hlineto
            129 callsubr
            -25 hlineto
            return
          </CharString>
          <CharString index="68">
            -97 callsubr
            5 163 rmoveto
            20 4 -13 -87 callgsubr
            -8 -1 144 callgsubr
            142 59 26 11 6 13 2 11 rlinecurve
            endchar
          </CharString>
          <CharString index="69">
            -77 callgsubr
            hintmask 0001000000000000
            -48 callsubr
            hintmask 0000100000000000
            -58 callsubr
            return
          </CharString>
          <CharString index="70">
            rlineto
            -17 -3 -4 -25 34 hhcurveto
            return
          </CharString>
          <CharString index="71">
            495 122 callsubr
            20 3 4 21 148 callsubr
            -20 -21 -3 hvcurveto
            -12 -69 rlineto
            -241 90 callsubr
            56 hlineto
            return
          </CharString>
          <CharString index="72">
            -8 61 -53 61 callgsubr
            83 61 -8 61 -53 61 hstemhm
            75 61 136 59 -35 61 -26 59 62 59 -19 59 hintmask 0010000000010000
            501 113 callsubr
            hintmask 0100000000100000
            -7 -42 rlineto
            -114 hlineto
            hintmask 0001000001000000
            26 153 rlineto
            110 hlineto
            157 callgsubr
            -110 hlineto
            hintmask 0000010000101000
            23 136 rlineto
            107 103 callsubr
            33 5 -6 9 -34 hhcurveto
            -149 hlineto
            -12 -7 0 4 -25 hvcurveto
            hintmask 1000001110000000
            4 -31 -6 0 -22 hhcurveto
            -142 -20 -34 -210 -35 hvcurveto
            -210 -35 9 -34 142 hhcurveto
            22 6 0 4 32 hvcurveto
            hintmask 0100000001010000
            4 26 7 0 12 hhcurveto
            156 223 callsubr
            -200 194 rmoveto
            -4 -26 -13 -80 -6 -21 rrcurveto
            hintmask 1000001100000000
            -47 -12 -13 -9 -46 hhcurveto
            -103 7 43 147 25 hvcurveto
            137 22 7 39 102 hhcurveto
            hintmask 0000100000000000
            48 9 -9 -52 -4 hvcurveto
            -1 -19 -13 -78 -5 -25 rrcurveto
            endchar
          </CharString>
          <CharString index="73">
            rmoveto
            28 5 67 callgsubr
            -5 hvcurveto
            -28 -4 141 callsubr
            28 26 22 28 4 hvcurveto
            return
          </CharString>
          <CharString index="74">
            0 -9 callgsubr
            return
          </CharString>
          <CharString index="75">
            29 -94 callgsubr
            return
          </CharString>
          <CharString index="76">
            -25 -89 callgsubr
            return
          </CharString>
          <CharString index="77">
            0 61 122 61 42 129 callgsubr
            hstemhm
            28 151 27 56 -35 151 -104 56 26 56 53 56 -38 56 -21 56 hintmask 1010000101000000
            506 100 callgsubr
            -123 hlineto
            38 225 rlineto
            hintmask 0010001000100000
            115 4 callgsubr
            -24 0 168 callsubr
            hintmask 0001000010010000
            34 203 rlineto
            115 hlineto
            -9 -53 rlineto
            hintmask 0000000000100000
            -14 -2 -5 -27 28 hhcurveto
            hintmask 0001001000010000
            28 5 27 14 2 117 callgsubr
            -281 121 callsubr
            hintmask 1101110110000000
            184 callgsubr
            -181 -489 rlineto
            -26 105 callgsubr
            71 4 callgsubr
            -23 0 -23 hhcurveto
            46 122 rlineto
            111 hlineto
            -21 -122 rlineto
            -14 41 callgsubr
            194 hlineto
            33 9 9 32 5 hvcurveto
            -201 203 rmoveto
            -99 hlineto
            113 306 rlineto
            37 hlineto
            endchar
          </CharString>
          <CharString index="78">
            560 -96 callsubr
            return
          </CharString>
          <CharString index="79">
            215 226 -105 callsubr
            return
          </CharString>
          <CharString index="80">
            -32 callgsubr
            hintmask 0010000000000000
            -2 vlineto
            hintmask 0100000001000000
            -17 -3 11 -13 17 hhcurveto
            22 hlineto
            hintmask 1000001010000000
            23 callsubr
            hintmask 0000010000000000
            -18 19 -7 27 4 27 rrcurveto
            hintmask 0100000100000000
            43 254 rlineto
            23 167 callsubr
            16 16 13 17 3 hvcurveto
            2 vlineto
            hintmask 0100000000000000
            16 3 -12 13 168 callsubr
            -16 115 callgsubr
            hintmask 0100001000000000
            -17 -3 11 -13 16 hhcurveto
            hintmask 0100000100000000
            23 hlineto
            hintmask 1000010010000000
            7 callgsubr
            hintmask 0010000001000000
            97 callgsubr
            hintmask 0000100000000000
            return
          </CharString>
          <CharString index="81">
            181 callsubr
            -23 0 -29 hhcurveto
            -1 4 -3 6 -1 2 -112 285 rcurveline
            184 192 rlineto
            36 181 callgsubr
            -27 0 -14 hhcurveto
            -88 hlineto
            -15 -26 98 callsubr
            14 hhcurveto
            -256 -266 45 266 159 callgsubr
            return
          </CharString>
          <CharString index="82">
            -15 -3 -4 -26 31 hhcurveto
            26 11 27 0 hvcurveto
            -27 47 82 0 22 hhcurveto
            134 65 82 58 10 hvcurveto
            return
          </CharString>
          <CharString index="83">
            -22 -128 rlineto
            -23 -25 98 callsubr
            17 hhcurveto
            77 hlineto
            17 119 callsubr
            -25 0 -23 hhcurveto
            return
          </CharString>
          <CharString index="84">
            28 25 76 callsubr
            return
          </CharString>
          <CharString index="85">
            0 61 -31 61 106 141 callgsubr
            -19 61 hstemhm
            85 69 -43 69 -26 69 -10 69 -59 69 91 69 -10 69 -12 69 hintmask 1000000000100000
            499 221 callsubr
            -24 0 -28 hhcurveto
            hintmask 0000100000010000
            88 callsubr
            hintmask 0000100000001000
            204 callgsubr
            -361 hlineto
            hintmask 0001001000000000
            -33 -11 -8 -34 -5 hvcurveto
            -10 -61 -51 callgsubr
            hintmask 0010100001010000
            7 42 rlineto
            255 hlineto
            -26 -153 rlineto
            -124 hlineto
            19 3 4 24 -35 hhcurveto
            -34 -4 -25 -17 196 callgsubr
            -10 -63 -35 callgsubr
            19 3 hvcurveto
            124 hlineto
            -23 -136 rlineto
            -234 hlineto
            hintmask 0100000100000000
            5 30 rlineto
            17 3 4 25 -34 hhcurveto
            hintmask 0100010000000000
            95 callsubr
            -8 -49 rlineto
            hintmask 1000000000100000
            -33 -5 6 -9 34 hhcurveto
            340 hlineto
            hintmask 0100000000001000
            46 callsubr
            endchar
          </CharString>
          <CharString index="86">
            -10 callgsubr
            23 hhcurveto
            return
          </CharString>
          <CharString index="87">
            1 hlineto
            104 -370 rlineto
            -35 10 25 0 20 hhcurveto
            30 15 3 39 6 hvcurveto
            62 369 121 callgsubr
            return
          </CharString>
          <CharString index="88">
            81 callsubr
            67 56 -24 56 26 56 -24 56 hintmask 11001000
            -26 callsubr
            hintmask 01100100
            70 callgsubr
            hintmask 11011000
            172 callsubr
            -15 218 callsubr
            hintmask 10100100
            183 callsubr
            100 26 callgsubr
            hintmask 10010000
            25 callsubr
            endchar
          </CharString>
          <CharString index="89">
            hlineto
            -16 callsubr
            return
          </CharString>
          <CharString index="90">
            0 61 214 62 213 61 hstemhm
            92 69 -33 69 -59 69 -33 69 -46 69 200 69 hintmask 0010001000000000
            535 301 rmoveto
            160 27 -61 150 -133 hhcurveto
            -206 hlineto
            -16 -31 callsubr
            26 -23 callgsubr
            22 hlineto
            hintmask 0100010000000000
            -36 -213 rlineto
            -28 hlineto
            -17 -16 -14 -17 -3 hvcurveto
            -18 -3 12 -13 17 hhcurveto
            hintmask 0100100000000000
            28 hlineto
            hintmask 1101000110000000
            -36 -214 rlineto
            -22 hlineto
            -16 -31 callsubr
            26 -23 callgsubr
            206 hlineto
            131 111 140 161 27 hvcurveto
            -69 hmoveto
            -117 -19 -79 -123 -111 hhcurveto
            -96 82 callgsubr
            59 hlineto
            17 16 13 18 173 callgsubr
            hintmask 0100010000000000
            -59 hlineto
            hintmask 0010001010000000
            36 213 186 callgsubr
          </CharString>
          <CharString index="91">
            -12 -35 0 -35 -6 hvcurveto
            -35 -6 35 0 12 hhcurveto
            return
          </CharString>
          <CharString index="92">
            581 27 callgsubr
            -391 hlineto
            -33 -9 -8 -33 -6 hvcurveto
            return
          </CharString>
          <CharString index="93">
            -14 198 callgsubr
            return
          </CharString>
          <CharString index="94">
            -20 -42 callgsubr
            return
          </CharString>
          <CharString index="95">
            rmoveto
            53 callgsubr
            return
          </CharString>
          <CharString index="96">
            -244 16 callsubr
            return
          </CharString>
          <CharString index="97">
            411 30 rmoveto
            1 callsubr
            -68 hlineto
            return
          </CharString>
          <CharString index="98">
            -20 hstemhm
            hintmask 10100000
            468 -130 rmoveto
            -59 callsubr
            7 39 36 33 53 27 rrcurveto
            -53 callgsubr
            hintmask 01011000
            170 callgsubr
            -20 hhcurveto
            -56 383 rlineto
            23 -3 -5 14 -39 hhcurveto
            -7 hlineto
            -38 -9 -13 -24 -12 hvcurveto
            -184 -383 164 callgsubr
            13 hhcurveto
            73 hlineto
            14 64 callsubr
            30 5 -31 0 -6 hhcurveto
            22 47 rlineto
            179 hlineto
            hintmask 10110000
            6 -46 rlineto
            -29 -11 -19 -12 -2 hvcurveto
            -31 -5 23 0 19 hhcurveto
            -39 -22 -29 176 callsubr
            -108 299 rmoveto
            -141 hlineto
            110 233 rlineto
            return
          </CharString>
          <CharString index="99">
            hmoveto
            25 4 -17 20 -25 hhcurveto
            -26 -22 -20 -25 -4 hvcurveto
            -25 return
          </CharString>
          <CharString index="100">
            161 callsubr
            501 221 callsubr
            -26 -11 callgsubr
            -23 hlineto
            -97 265 151 224 159 callgsubr
            31 5 -26 -11 callgsubr
            -104 132 callsubr
            23 0 23 hhcurveto
            -96 -146 -52 146 rlineto
            20 23 24 callsubr
            -104 hlineto
            -15 -26 -83 callsubr
            26 -23 callgsubr
            23 hlineto
            82 -225 -177 -264 rlineto
            -22 hlineto
            -16 -24 171 callsubr
            31 5 -24 0 -23 hhcurveto
            125 194 66 -194 rlineto
            -23 -22 171 callsubr
            endchar
          </CharString>
          <CharString index="101">
            537 -2 callgsubr
            return
          </CharString>
          <CharString index="102">
            22 callsubr
            24 145 rlineto
            76 hlineto
            96 -7 -45 -19 -3 hvcurveto
            -7 -39 rlineto
            return
          </CharString>
          <CharString index="103">
            118 callsubr
            -40 -6 -99 0 -38 hhcurveto
            -38 -22 0 -31 -6 hvcurveto
            -23 -3 14 -8 15 hhcurveto
            95 140 0 102 17 hvcurveto
            return
          </CharString>
          <CharString index="104">
            85 callsubr
            67 56 -24 56 26 56 -24 56 hintmask 00110010
            -26 callsubr
            hintmask 00011001
            70 callgsubr
            hintmask 00110110
            172 callsubr
            -15 218 callsubr
            hintmask 00101001
            183 callsubr
            100 26 callgsubr
            return
          </CharString>
          <CharString index="105">
            rmoveto
            82 13 -110 0 -66 hhcurveto
            -66 -110 0 -82 -13 hvcurveto
            -19 -3 9 -12 20 hhcurveto
            24 6 17 12 4 hvcurveto
            20 9 68 0 42 hhcurveto
            43 67 0 -20 1 hvcurveto
            -12 2 -17 24 19 227 callgsubr
            vhcurveto
            endchar
          </CharString>
          <CharString index="106">
            rmoveto
            82 14 -110 0 -66 hhcurveto
            -66 -110 0 -82 -14 hvcurveto
            -19 -3 9 -12 20 hhcurveto
            24 7 17 12 4 hvcurveto
            20 8 68 0 42 hhcurveto
            43 67 0 -20 2 hvcurveto
            -12 1 -17 24 19 227 callgsubr
            vhcurveto
            endchar
          </CharString>
          <CharString index="107">
            -13 11 169 callsubr
            30 221 callgsubr
            23 15 32 22 3 18 rrcurveto
            endchar
          </CharString>
          <CharString index="108">
            31 -61 callgsubr
            return
          </CharString>
          <CharString index="109">
            -11 61 249 61 201 61 hstemhm
            73 69 -7 69 236 69 -35 69 hintmask 00101010
            509 174 rmoveto
            13 75 -56 59 -70 21 84 27 54 49 9 57 rrcurveto
            82 14 -72 78 -119 hhcurveto
            -120 -97 -79 -81 -14 hvcurveto
            -9 -57 37 -50 75 -26 rrcurveto
            hintmask 11010100
            -79 -21 -73 -59 -13 -75 rrcurveto
            -97 -16 78 -88 125 hhcurveto
            126 107 88 97 16 hvcurveto
            -35 287 rmoveto
            -57 -10 -69 -44 -73 hhcurveto
            hintmask 10101010
            -73 -54 45 56 9 hvcurveto
            52 9 64 48 79 hhcurveto
            78 49 -48 -52 -9 hvcurveto
            -34 -286 rmoveto
            -69 -11 -76 -56 -83 hhcurveto
            hintmask 01010100
            -83 -56 56 69 11 hvcurveto
            61 10 69 63 91 hhcurveto
            92 46 -63 -61 -10 hvcurveto
            endchar
          </CharString>
          <CharString index="110">
            61 callsubr
            -59 -350 45 callsubr
            return
          </CharString>
          <CharString index="111">
            hlineto
            -53 callgsubr
            return
          </CharString>
          <CharString index="112">
            66 callsubr
            98 63 -18 callgsubr
            hintmask 1000001001000000
            -10 callsubr
            hintmask 0100000100000000
            88 callsubr
            hintmask 0100000010000000
            68 143 callsubr
            hintmask 0100010001000000
            59 callsubr
            hintmask 0100100100000000
            -30 -5 29 0 13 hhcurveto
            68 hlineto
            64 callgsubr
            104 callgsubr
            hintmask 1000100010000000
            -30 -5 29 0 13 hhcurveto
            205 143 callsubr
            hintmask 0010000000000000
            return
          </CharString>
          <CharString index="113">
            -20 -46 callsubr
            return
          </CharString>
          <CharString index="114">
            37 7 -26 26 -32 hhcurveto
            -38 -30 -31 -70 callgsubr
            -37 -7 26 -26 32 hhcurveto
            38 30 31 -9 callgsubr
            return
          </CharString>
          <CharString index="115">
            47 rmoveto
            47 11 -33 63 callsubr
            11 -33 44 callgsubr
          </CharString>
          <CharString index="116">
            0 61 184 61 244 61 hstem
            107 69 13 69 224 69 vstem
            551 428 rmoveto
            93 16 -59 90 -115 hhcurveto
            -224 hlineto
            -15 -26 -83 callsubr
            26 -23 callgsubr
            30 53 callsubr
            -30 hlineto
            -16 -31 callsubr
            26 -23 callgsubr
            129 -26 callgsubr
            31 5 -26 -11 callgsubr
            -30 hlineto
            31 184 rlineto
            125 hlineto
            116 88 90 93 15 hvcurveto
            -69 hmoveto
            -53 -8 -55 -69 -96 hhcurveto
            -106 hlineto
            41 244 rlineto
            106 hlineto
            96 31 -69 -53 -9 hvcurveto
            endchar
          </CharString>
          <CharString index="117">
            -7 -42 -18 -39 -29 -30 rrcurveto
            -27 -27 -32 -16 -31 hhcurveto
            -30 -26 16 27 -17 hvcurveto
            -19 30 -6 39 7 42 rrcurveto
            return
          </CharString>
          <CharString index="118">
            580 -12 callsubr
            return
          </CharString>
          <CharString index="119">
            -210 -21 104 94 33 152 callgsubr
            178 69 hintmask 0001000010000000
            -5 callgsubr
            hintmask 0010001000000000
            125 callgsubr
            hintmask 0000110100000000
            59 350 -42 callsubr
            hintmask 0010001000000000
            -17 callgsubr
            hintmask 0010010000000000
            30 callsubr
            return
          </CharString>
          <CharString index="120">
            89 callgsubr
            hintmask 0010010100000000
            59 350 -42 callsubr
            hintmask 1000001000000000
            -17 callgsubr
            hintmask 1000010000000000
            30 callsubr
            hintmask 0100000000000000
            33 10 8 34 6 hvcurveto
            return
          </CharString>
          <CharString index="121">
            298 527 -86 callgsubr
            return
          </CharString>
          <CharString index="122">
            -17 callgsubr
            -26 -44 callgsubr
            27 -23 callgsubr
            return
          </CharString>
          <CharString index="123">
            160 -96 callsubr
            return
          </CharString>
          <CharString index="124">
            70 callsubr
            8 49 rlineto
            return
          </CharString>
          <CharString index="125">
            61 hstem
            434 69 vstem
            503 193 rmoveto
            114 19 -73 89 -110 hhcurveto
            -52 -55 -17 -41 -52 hvcurveto
            141 38 108 82 88 hhcurveto
            34 14 -11 -5 4 hvcurveto
            -6 -5 -6 -6 -3 -18 rrcurveto
            -24 -4 15 84 callsubr
            23 17 -71 callsubr
            49 8 -27 54 -97 hhcurveto
            -134 -154 -121 -202 -34 hvcurveto
            -237 -40 100 -73 99 hhcurveto
            109 112 84 120 20 hvcurveto
            -69 hmoveto
            -86 -14 -76 -57 -72 hhcurveto
            -65 -30 49 61 -10 hvcurveto
            return
          </CharString>
          <CharString index="126">
            rmoveto
            -19 -3 -27 -15 -23 hhcurveto
            -23 -21 15 226 callsubr
            3 27 15 23 hhcurveto
            23 21 -15 -19 -45 callgsubr
            41 191 -104 callgsubr
          </CharString>
          <CharString index="127">
            42 callsubr
            61 -31 61 return
          </CharString>
          <CharString index="128">
            0 20 callsubr
            return
          </CharString>
          <CharString index="129">
            31 5 -25 0 -23 hhcurveto
            return
          </CharString>
          <CharString index="130">
            -43 -254 -4 -27 -16 -27 -24 -19 rlinecurve
            -20 -24 -31 -11 -31 hhcurveto
            -30 -27 11 20 -18 hvcurveto
            return
          </CharString>
          <CharString index="131">
            -33 callsubr
            30 5 -25 -11 callgsubr
            return
          </CharString>
          <CharString index="132">
            -22 hlineto
            22 133 113 117 98 -250 rlineto
            -14 41 callgsubr
            75 -26 callgsubr
            return
          </CharString>
          <CharString index="133">
            14 119 callsubr
            -26 -11 callgsubr
            return
          </CharString>
          <CharString index="134">
            -16 -24 -90 callgsubr
            return
          </CharString>
          <CharString index="135">
            11 -15 -41 24 -63 hhcurveto
            -130 -121 -110 -134 -23 hvcurveto
            -132 -22 83 -112 133 hhcurveto
            return
          </CharString>
          <CharString index="136">
            -9 -53 -52 callsubr
            4 21 20 3 117 callgsubr
            -373 hlineto
            -15 -26 -83 callsubr
            26 -23 callgsubr
            30 53 callsubr
            -30 hlineto
            -16 -31 callsubr
            26 -23 callgsubr
            285 hlineto
            51 callsubr
            rrcurveto
            return
          </CharString>
          <CharString index="137">
            -34 -23 -83 callgsubr
            341 hlineto
            return
          </CharString>
          <CharString index="138">
            rlineto
            25 4 callgsubr
            -24 0 -16 hhcurveto
            return
          </CharString>
          <CharString index="139">
            rmoveto
            30 -61 callgsubr
            return
          </CharString>
          <CharString index="140">
            -78 callgsubr
            5 163 -104 callgsubr
          </CharString>
          <CharString index="141">
            0 35 callgsubr
            return
          </CharString>
          <CharString index="142">
            0 61 47 137 callsubr
            return
          </CharString>
          <CharString index="143">
            -45 callgsubr
            endchar
          </CharString>
          <CharString index="144">
            442 32 callsubr
            return
          </CharString>
          <CharString index="145">
            502 30 rmoveto
            2 13 -3 10 -11 5 rrcurveto
            3 -6 -22 -11 callgsubr
            -34 523 rlineto
            38 -2 -14 1 -31 hhcurveto
            -29 -16 0 -38 -15 hvcurveto
            -209 -524 rlineto
            -14 -23 0 -2 -6 hvcurveto
            -12 -6 -8 -10 -2 -13 rrcurveto
            -30 -5 26 0 17 hhcurveto
            102 hlineto
            18 24 -94 callgsubr
            31 5 -20 0 -36 hhcurveto
            41 104 rlineto
            162 hlineto
            5 -104 rlineto
            return
          </CharString>
          <CharString index="146">
            -208 62 191 -20 hstem
            341 69 vstem
            410 -106 rmoveto
            160 callsubr
            rrcurveto
            37 7 3 17 148 callsubr
            -22 -20 -3 hvcurveto
            -5 -27 146 callgsubr
            rlinecurve
            -4 callsubr
            endchar
          </CharString>
          <CharString index="147">
            -81 callsubr
            25 hlineto
            return
          </CharString>
          <CharString index="148">
            hlineto
            -13 18 callgsubr
            return
          </CharString>
          <CharString index="149">
            61 callgsubr
            106 return
          </CharString>
          <CharString index="150">
            -29 -5 19 -19 25 hhcurveto
            4 6 1 2 6 hvcurveto
            -19 -47 -38 -12 -10 -3 -7 -2 -15 -4 -2 -15 rrcurveto
            -11 -2 10 -13 12 hhcurveto
            24 84 41 82 13 hvcurveto
            endchar
          </CharString>
          <CharString index="151">
            61 callsubr
            -23 -135 rlineto
            -203 hlineto
            23 135 rlineto
            return
          </CharString>
          <CharString index="152">
            rlineto
            -58 callgsubr
            return
          </CharString>
          <CharString index="153">
            14 65 callsubr
            return
          </CharString>
          <CharString index="154">
            113 rmoveto
            3 17 -7 7 -6 6 -161 163 rcurveline
            215 163 8 6 9 7 3 17 rlinecurve
            21 4 -9 11 -11 hhcurveto
            -6 -3 -1 -8 -11 hvcurveto
            -246 -186 -7 -6 -9 -7 -3 -17 rlinecurve
            -2 -12 3 -10 5 -6 187 -188 rcurveline
            -8 9 2 -1 6 hhcurveto
            11 12 11 21 4 hvcurveto
            return
          </CharString>
          <CharString index="155">
            372 100 hstem
            264 61 vstem
            452 649 rmoveto
            18 3 -14 14 -14 hhcurveto
            -24 -118 -69 -126 -21 hvcurveto
            -77 -13 31 -37 41 hhcurveto
            33 22 26 24 4 hvcurveto
            27 5 -16 23 -30 hhcurveto
            -7 -7 -1 0 hvcurveto
            -4 1 9 6 1 hvcurveto
            3 19 15 72 87 46 9 5 11 5 2 16 rrcurveto
            endchar
          </CharString>
          <CharString index="156">
            61 105 61 200 61 hstemhm
            83 69 118 70 19 70 -51 69 -18 70 -50 70 return
          </CharString>
          <CharString index="157">
            hstemhm
            54 69 -12 69 -10 69 return
          </CharString>
          <CharString index="158">
            -43 -25 -32 -36 -8 -47 rrcurveto
            -43 -7 27 -52 63 hhcurveto
            38 42 26 33 30 hvcurveto
            8 9 0 21 -7 7 return
          </CharString>
          <CharString index="159">
            -16 -14 -13 -15 -3 hvcurveto
            -1 -5 rlineto
            return
          </CharString>
          <CharString index="160">
            hlineto
            -21 callgsubr
            return
          </CharString>
          <CharString index="161">
            7 -15 -16 4 -18 hhcurveto
            -65 -67 -38 -60 -10 hvcurveto
            -54 -9 34 -45 54 hhcurveto
            60 62 28 46 34 hvcurveto
            -35 36 33 -39 55 hhcurveto
            75 52 84 84 14 hvcurveto
            -317 -54 rmoveto
            -29 -15 -39 -15 -38 hhcurveto
            -15 -9 13 16 3 hvcurveto
            23 4 29 5 27 hhcurveto
            20 18 -5 -8 15 hvcurveto
            endchar
          </CharString>
          <CharString index="162">
            25 callgsubr
            endchar
          </CharString>
          <CharString index="163">
            -44 -7 -24 -27 -12 hhcurveto
            -12 -14 27 44 7 hvcurveto
            44 8 23 27 12 hhcurveto
            12 15 -27 -44 -8 hvcurveto
            return
          </CharString>
          <CharString index="164">
            326 rmoveto
            16 3 -12 0 -8 hhcurveto
            -46 hlineto
            43 260 rlineto
            8 2 2 12 -15 hhcurveto
            -9 -4 -6 -6 -4 hvcurveto
            -26 -42 -27 -6 -9 -1 rrcurveto
            return
          </CharString>
          <CharString index="165">
            hvcurveto
            5 5 6 6 3 17 rrcurveto
            24 4 -15 20 -26 hhcurveto
            -25 -23 -17 -68 callsubr
            -32 -5 6 -71 128 hhcurveto
            132 144 125 198 33 hvcurveto
            -65 77 rmoveto
            -55 -9 -64 -57 -83 hhcurveto
            -81 -42 67 74 13 hvcurveto
            87 14 81 56 72 hhcurveto
            43 24 -23 -20 12 hvcurveto
            return
          </CharString>
          <CharString index="166">
            1 callsubr
            -205 116 callsubr
            return
          </CharString>
          <CharString index="167">
            rlineto
            25 -56 callsubr
            return
          </CharString>
          <CharString index="168">
            -31 -5 25 0 23 hhcurveto
            return
          </CharString>
          <CharString index="169">
            -31 -5 24 0 28 hhcurveto
            return
          </CharString>
          <CharString index="170">
            -72 callgsubr
            224 204 rmoveto
            47 return
          </CharString>
          <CharString index="171">
            28 -33 callsubr
            return
          </CharString>
          <CharString index="172">
            28 -94 callgsubr
            return
          </CharString>
          <CharString index="173">
            0 88 callgsubr
            return
          </CharString>
          <CharString index="174">
            -94 callgsubr
            170 callgsubr
            return
          </CharString>
          <CharString index="175">
            -29 callsubr
            endchar
          </CharString>
          <CharString index="176">
            15 20 hhcurveto
            0 8 0 10 -5 vhcurveto
            28 callgsubr
          </CharString>
          <CharString index="177">
            35 4 24 18 3 hvcurveto
            return
          </CharString>
          <CharString index="178">
            rmoveto
            16 2 20 callgsubr
            return
          </CharString>
          <CharString index="179">
            -22 -28 -5 hvcurveto
            return
          </CharString>
          <CharString index="180">
            28 168 rlineto
            24 169 callgsubr
            return
          </CharString>
          <CharString index="181">
            120 callsubr
            hstemhm
            89 69 229 69 -41 69 return
          </CharString>
          <CharString index="182">
            hlineto
            27 callsubr
            return
          </CharString>
          <CharString index="183">
            22 28 5 hvcurveto
            return
          </CharString>
          <CharString index="184">
            -78 callgsubr
            75 172 45 callgsubr
            return
          </CharString>
          <CharString index="185">
            -210 -21 104 94 return
          </CharString>
          <CharString index="186">
            -28 -34 -29 -16 -14 hhcurveto
            -10 -7 9 12 -11 hvcurveto
            return
          </CharString>
          <CharString index="187">
            61 -53 61 20 61 64 61 144 61 return
          </CharString>
          <CharString index="188">
            2 callgsubr
            hstemhm
            return
          </CharString>
          <CharString index="189">
            61 511 61 return
          </CharString>
          <CharString index="190">
            rrcurveto
            48 8 58 21 55 hhcurveto
            42 40 -13 -28 12 hvcurveto
            -7 -8 -6 -10 -1 -10 rrcurveto
            -25 -4 16 -19 24 hhcurveto
            24 24 19 25 4 hvcurveto
            85 14 -78 54 -92 hhcurveto
            -93 -96 -54 -85 -14 hvcurveto
            return
          </CharString>
          <CharString index="191">
            -20 26 hhcurveto
            25 return
          </CharString>
          <CharString index="192">
            97 callsubr
            hstemhm
            return
          </CharString>
          <CharString index="193">
            21 -34 hhcurveto
            -27 -31 -16 -17 return
          </CharString>
          <CharString index="194">
            -8 111 callsubr
            return
          </CharString>
          <CharString index="195">
            59 350 rlineto
            return
          </CharString>
          <CharString index="196">
            -25 -48 callgsubr
            221 hlineto
            108 70 71 60 10 hvcurveto
            -53 218 rmoveto
            -33 -5 -46 -40 -78 hhcurveto
            -104 hlineto
            23 135 rlineto
            122 hlineto
            return
          </CharString>
          <CharString index="197">
            hlineto
            69 callgsubr
            return
          </CharString>
          <CharString index="198">
            rmoveto
            241 40 -99 69 -95 hhcurveto
            -111 -115 -83 -121 -20 hvcurveto
            -114 -19 73 -89 110 hhcurveto
            52 55 17 41 52 hvcurveto
            -124 -31 -95 -99 -96 hhcurveto
            -9 return
          </CharString>
          <CharString index="199">
            7 11 8 hvcurveto
            410 571 4 5 2 6 1 6 rlinecurve
            return
          </CharString>
          <CharString index="200">
            28 35 28 132 callgsubr
            return
          </CharString>
          <CharString index="201">
            hstemhm
            48 105 callsubr
            return
          </CharString>
          <CharString index="202">
            -35 -4 -24 -18 -3 hvcurveto
            return
          </CharString>
          <CharString index="203">
            hlineto
            hintmask 0000000000010000
            -53 callgsubr
            return
          </CharString>
          <CharString index="204">
            133 callgsubr
            489 61 return
          </CharString>
          <CharString index="205">
            -89 callgsubr
            27 0 return
          </CharString>
          <CharString index="206">
            -32 26 hhcurveto
            7 return
          </CharString>
          <CharString index="207">
            -5 186 callsubr
            return
          </CharString>
          <CharString index="208">
            28 0 14 hhcurveto
            return
          </CharString>
          <CharString index="209">
            61 366 61 return
          </CharString>
          <CharString index="210">
            hlineto
            -5 -30 rlineto
            -13 -3 -4 -29 30 hhcurveto
            29 5 30 12 2 hvcurveto
            8 49 rlineto
            return
          </CharString>
          <CharString index="211">
            133 callgsubr
            350 61 hstemhm
            return
          </CharString>
          <CharString index="212">
            69 -16 69 -10 69 return
          </CharString>
          <CharString index="213">
            -142 hlineto
            hintmask 00100010
            24 143 72 callgsubr
            hintmask 01000100
            -24 -143 rlineto
            -142 hlineto
            -12 -35 0 -35 return
          </CharString>
          <CharString index="214">
            rmoveto
            32 5 -23 0 -17 hhcurveto
            -122 188 callgsubr
            121 165 callsubr
          </CharString>
          <CharString index="215">
            167 callsubr
            52 callsubr
            return
          </CharString>
          <CharString index="216">
            hlineto
            17 16 14 17 173 callgsubr
            return
          </CharString>
          <CharString index="217" raw="1">
            a4c00a72 060b  
          </CharString>
          <CharString index="218">
            61 358 61 return
          </CharString>
          <CharString index="219">
            99 rmoveto
            18 3 -12 17 -20 hhcurveto
            -24 -10 -19 -12 -7 hvcurveto
            -388 -689 -6 -10 -3 -5 -1 -7 rlinecurve
            124 callsubr
            return
          </CharString>
          <CharString index="220">
            122 callgsubr
            12 2 5 30 -29 hhcurveto
            -30 -5 -29 -13 -2 hvcurveto
            return
          </CharString>
          <CharString index="221">
            hlineto
            hintmask 0000000001000000
            -53 callgsubr
            return
          </CharString>
          <CharString index="222">
            hlineto
            hintmask 0000100000000000
            33 callgsubr
            return
          </CharString>
          <CharString index="223">
            225 callsubr
            33 callgsubr
            return
          </CharString>
          <CharString index="224">
            349 -21 294 -20 hstem
            return
          </CharString>
          <CharString index="225">
            44 -2 20 -18 -4 -20 rrcurveto
            return
          </CharString>
          <CharString index="226">
            127 callsubr
            31 5 return
          </CharString>
          <CharString index="227">
            61 159 61 291 61 return
          </CharString>
          <CharString index="228">
            hlineto
            -15 -25 -93 callsubr
            return
          </CharString>
          <CharString index="229">
            41 rmoveto
            15 89 rlineto
            return
          </CharString>
          <CharString index="230">
            88 callsubr
            92 hlineto
            107 38 -95 -84 -14 hvcurveto
            return
          </CharString>
          <CharString index="231">
            -19 -3 13 -16 19 hhcurveto
            return
          </CharString>
          <CharString index="232">
            -16 -17 -26 hvcurveto
            return
          </CharString>
          <CharString index="233">
            464 254 rmoveto
            94 16 -65 66 -82 hhcurveto
            -96 -77 -79 -79 -13 hvcurveto
            -94 -16 65 -66 82 hhcurveto
            96 77 79 79 13 hvcurveto
            return
          </CharString>
          <CharString index="234">
            27 -94 callgsubr
            return
          </CharString>
          <CharString index="235">
            13 16 2 hvcurveto
            return
          </CharString>
          <CharString index="236">
            -88 callgsubr
            119 4 callgsubr
            -24 0 -16 hhcurveto
            return
          </CharString>
          <CharString index="237">
            -15 -2 13 0 7 hhcurveto
            126 hlineto
            7 13 0 15 2 hvcurveto
            return
          </CharString>
          <CharString index="238">
            136 callgsubr
            hstemhm
            89 65 return
          </CharString>
          <CharString index="239">
            121 callsubr
            -31 -5 return
          </CharString>
          <CharString index="240">
            hstemhm
            60 69 -7 69 -10 69 return
          </CharString>
          <CharString index="241">
            35 -13 callgsubr
            return
          </CharString>
          <CharString index="242">
            17 3 -12 14 -17 hhcurveto
            return
          </CharString>
          <CharString index="243">
            21 14 -2 -6 10 return
          </CharString>
          <CharString index="244">
            61 312 -20 return
          </CharString>
          <CharString index="245">
            -25 callsubr
            endchar
          </CharString>
          <CharString index="246" raw="1">
            591d1380 7e960b  
          </CharString>
          <CharString index="247">
            88 callgsubr
            hstemhm
            44 69 -17 69 -10 227 callsubr
            return
          </CharString>
          <CharString index="248">
            18 -22 28 hhcurveto
            return
          </CharString>
          <CharString index="249">
            hlineto
            -36 -123 -1 -5 0 vvcurveto
            -18 -3 11 -17 21 hhcurveto
            31 8 29 12 4 hvcurveto
            36 122 rlineto
            return
          </CharString>
          <CharString index="250">
            hlineto
            hintmask 0000000000100000
            -53 callgsubr
            return
          </CharString>
          <CharString index="251">
            hstemhm
            119 69 13 162 callgsubr
            return
          </CharString>
          <CharString index="252">
            hstemhm
            167 69 2 90 105 90 -51 69 return
          </CharString>
          <CharString index="253">
            66 callsubr
            hstemhm
            return
          </CharString>
          <CharString index="254">
            -7 -4 2 3 -6 hvcurveto
            return
          </CharString>
          <CharString index="255">
            -34 hhcurveto
            -35 -4 return
          </CharString>
          <CharString index="256">
            -31 -27 -19 -27 -6 rrcurveto
            -39 -21 24 34 6 hvcurveto
            5 31 27 19 27 6 rrcurveto
            39 21 -24 -34 return
          </CharString>
          <CharString index="257">
            9 56 13 77 18 48 rrcurveto
            55 22 26 20 92 hhcurveto
            89 25 -17 -65 -51 -11 -68 -9 -54 hvcurveto
            return
          </CharString>
          <CharString index="258">
            rrcurveto
            -39 -7 25 -47 56 hhcurveto
            35 38 24 29 26 hvcurveto
            return
          </CharString>
          <CharString index="259">
            0 166 callsubr
            return
          </CharString>
          <CharString index="260">
            hstemhm
            122 69 -32 69 -59 69 return
          </CharString>
          <CharString index="261">
            hlineto
            33 115 rlineto
            37 11 -22 10 -15 hhcurveto
            -31 -9 -29 -12 -3 hvcurveto
            -35 -121 rlineto
            return
          </CharString>
          <CharString index="262">
            -191 rmoveto
            28 5 -19 59 callgsubr
            -25 72 callsubr
            -28 -5 19 -22 28 hhcurveto
            return
          </CharString>
          <CharString index="263">
            -8 -12 -1 -14 -2 hvcurveto
            -13 -2 9 -2 8 hhcurveto
            return
          </CharString>
          <CharString index="264">
            -28 -35 -28 -16 -14 hhcurveto
            -10 -7 9 12 -11 hvcurveto
            return
          </CharString>
          <CharString index="265">
            39 callgsubr
            70 64 return
          </CharString>
          <CharString index="266">
            581 76 callgsubr
            return
          </CharString>
          <CharString index="267">
            7 39 -21 44 -69 14 return
          </CharString>
          <CharString index="268">
            2 callgsubr
            hstem
            return
          </CharString>
          <CharString index="269">
            hhcurveto
            180 23 return
          </CharString>
          <CharString index="270">
            18 callgsubr
            20 hhcurveto
            return
          </CharString>
          <CharString index="271">
            hlineto
            33 9 9 32 5 hvcurveto
            endchar
          </CharString>
          <CharString index="272">
            hlineto
            16 58 callgsubr
            endchar
          </CharString>
          <CharString index="273">
            187 callgsubr
            202 61 return
          </CharString>
          <CharString index="274">
            hlineto
            hintmask 0010000000000000
            return
          </CharString>
          <CharString index="275">
            -16 hhcurveto
            -115 hlineto
            return
          </CharString>
          <CharString index="276">
            17 -21 34 hhcurveto
            27 return
          </CharString>
          <CharString index="277">
            30 5 -25 0 -18 hhcurveto
            -98 hlineto
            -18 -25 -83 callsubr
            21 0 return
          </CharString>
          <CharString index="278">
            -93 callgsubr
            104 -26 callgsubr
            return
          </CharString>
          <CharString index="279">
            22 53 callsubr
            -22 hlineto
            return
          </CharString>
          <CharString index="280">
            93 83 57 83 86 69 return
          </CharString>
          <CharString index="281">
            hlineto
            hintmask 0000000000001000
            -53 callgsubr
            return
          </CharString>
          <CharString index="282">
            -33 callsubr
            30 5 198 callsubr
            return
          </CharString>
          <CharString index="283">
            -33 -7 -42 151 callsubr
            return
          </CharString>
          <CharString index="284">
            15 9 7 18 -8 14 rlinecurve
            1 vlineto
            -7 13 -17 4 -14 -9 return
          </CharString>
          <CharString index="285">
            -20 hstemhm
            32 187 50 59 -22 59 -50 187 -136 59 return
          </CharString>
          <CharString index="286">
            -27 -89 callgsubr
            29 0 return
          </CharString>
          <CharString index="287">
            87 callsubr
            -31 61 return
          </CharString>
          <CharString index="288">
            500 221 callsubr
            return
          </CharString>
          <CharString index="289">
            170 callgsubr
            -15 hhcurveto
            return
          </CharString>
          <CharString index="290">
            -31 -5 25 0 16 hhcurveto
            return
          </CharString>
          <CharString index="291">
            103 56 308 56 return
          </CharString>
          <CharString index="292">
            62 10 69 50 76 hhcurveto
            81 42 -67 -74 -13 hvcurveto
            endchar
          </CharString>
          <CharString index="293">
            24 0 17 hhcurveto
            return
          </CharString>
          <CharString index="294">
            217 callsubr
            134 -20 hstemhm
            hintmask 11000000
            return
          </CharString>
          <CharString index="295">
            rrcurveto
            39 6 2 13 -40 hhcurveto
            -30 -11 -5 -36 -6 hvcurveto
            return
          </CharString>
          <CharString index="296">
            hlineto
            19 18 15 20 4 hvcurveto
            19 3 -14 16 -19 hhcurveto
            return
          </CharString>
          <CharString index="297">
            rmoveto
            15 2 -12 0 -8 hhcurveto
            -39 hlineto
            30 176 rlineto
            return
          </CharString>
          <CharString index="298">
            75 callsubr
            -32 -6 186 callsubr
            return
          </CharString>
          <CharString index="299">
            rlineto
            18 3 3 16 -22 hhcurveto
            -21 -3 -17 -17 -3 hvcurveto
            return
          </CharString>
          <CharString index="300">
            hhcurveto
            21 26 17 28 4 hvcurveto
            2 return
          </CharString>
          <CharString index="301">
            61 50 callsubr
            return
          </CharString>
          <CharString index="302">
            2 rrcurveto
            1 -16 -16 1 -16 hhcurveto
            return
          </CharString>
          <CharString index="303">
            69 -15 69 -54 69 return
          </CharString>
          <CharString index="304">
            -62 -21 777 -20 return
          </CharString>
          <CharString index="305">
            -29 0 -13 hhcurveto
            return
          </CharString>
          <CharString index="306">
            23 18 3 hvcurveto
            return
          </CharString>
          <CharString index="307">
            rlineto
            96 hlineto
            113 34 -133 -116 -20 hvcurveto
            return
          </CharString>
          <CharString index="308">
            -17 -3 10 -14 18 hhcurveto
            17 17 14 17 3 hvcurveto
            return
          </CharString>
          <CharString index="309">
            21 callsubr
            hstemhm
            return
          </CharString>
          <CharString index="310">
            -36 -20 -89 callgsubr
            24 0 18 hhcurveto
            return
          </CharString>
          <CharString index="311">
            hstemhm
            106 59 -4 59 -55 59 154 59 0 59 return
          </CharString>
          <CharString index="312">
            hhcurveto
            17 3 19 14 2 hvcurveto
            136 815 rlineto
            return
          </CharString>
          <CharString index="313">
            8 12 0 15 3 hvcurveto
            return
          </CharString>
          <CharString index="314">
            -19 -3 14 -16 19 hhcurveto
            return
          </CharString>
          <CharString index="315">
            61 -19 61 308 61 return
          </CharString>
          <CharString index="316">
            24 4 -17 20 -24 hhcurveto
            return
          </CharString>
          <CharString index="317">
            7 6 2 3 6 hvcurveto
            return
          </CharString>
          <CharString index="318">
            hstemhm
            188 100 return
          </CharString>
          <CharString index="319">
            hhcurveto
            64 callgsubr
            return
          </CharString>
          <CharString index="320">
            -83 62 142 62 244 62 143 62 return
          </CharString>
          <CharString index="321">
            65 callgsubr
            76 137 callgsubr
            return
          </CharString>
          <CharString index="322">
            hintmask 0100000100000000
            -17 callgsubr
            return
          </CharString>
          <CharString index="323">
            61 84 137 callgsubr
            return
          </CharString>
          <CharString index="324">
            43 callgsubr
            72 -21 return
          </CharString>
          <CharString index="325">
            -26 -93 callsubr
            return
          </CharString>
          <CharString index="326">
            13 -21 558 61 return
          </CharString>
          <CharString index="327">
            26 -33 callsubr
            return
          </CharString>
          <CharString index="328">
            30 rmoveto
            31 5 return
          </CharString>
          <CharString index="329">
            hlineto
            hintmask 0000010000000000
            33 callgsubr
            return
          </CharString>
          <CharString index="330">
            167 callsubr
            -7 callgsubr
            return
          </CharString>
          <CharString index="331">
            -181 63 118 54 callgsubr
            hstemhm
            return
          </CharString>
          <CharString index="332">
            hlineto
            hintmask 0001000000000000
            return
          </CharString>
          <CharString index="333">
            19 3 hvcurveto
            19 return
          </CharString>
          <CharString index="334">
            69 223 69 return
          </CharString>
        <CharString name=".notdef">
          173 endchar
        </CharString>
        <CharString name="A">
          39 callgsubr
          hstem
          -107 callgsubr
          endchar
        </CharString>
        <CharString name="AE">
          -30 callsubr
        </CharString>
        <CharString name="AE.dup">
          -30 callsubr
        </CharString>
        <CharString name="AEacute">
          0 61 122 61 42 129 callgsubr
          83 137 callgsubr
          28 151 27 56 -35 151 -104 56 26 56 53 56 -38 56 -21 56 hintmask 1010000001010000
          506 100 callgsubr
          -123 hlineto
          38 225 rlineto
          hintmask 0010000010001000
          115 4 callgsubr
          -24 0 168 callsubr
          hintmask 0001000000100100
          34 203 rlineto
          115 hlineto
          -9 -53 rlineto
          hintmask 0000000000001000
          -14 -2 -5 -27 28 hhcurveto
          hintmask 0001000010000100
          28 5 27 14 2 117 callgsubr
          -281 121 callsubr
          hintmask 1101001101100000
          184 callgsubr
          -181 -489 rlineto
          -26 105 callgsubr
          71 4 callgsubr
          -23 0 -23 hhcurveto
          46 122 rlineto
          111 hlineto
          -21 -122 rlineto
          -14 41 callgsubr
          194 hlineto
          33 9 9 32 5 hvcurveto
          -201 203 rmoveto
          -99 hlineto
          113 306 rlineto
          37 hlineto
          hintmask 0000110000000000
          142 222 -104 callsubr
        </CharString>
        <CharString name="Aacute">
          39 callgsubr
          91 -21 134 -64 callgsubr
          144 332 -104 callsubr
        </CharString>
        <CharString name="Abreve">
          158 callsubr
          49 -64 callgsubr
          -27 callgsubr
          endchar
        </CharString>
        <CharString name="Abreveacute">
          158 callsubr
          69 64 -59 64 65 -92 callgsubr
          hintmask 00010110
          -27 callgsubr
          -45 150 rmoveto
          20 3 -12 -87 callgsubr
          hintmask 00001000
          -8 -1 1 -32 26 hhcurveto
          hintmask 00000100
          210 callsubr
          hintmask 00001000
          143 59 26 11 6 13 2 11 rlinecurve
          endchar
        </CharString>
        <CharString name="Abrevedotbelow">
          -200 100 100 46 callgsubr
          70 64 49 -20 211 callsubr
          hintmask 01111100
          -107 callgsubr
          -27 callgsubr
          hintmask 10000010
          -277 -905 -99 callgsubr
          endchar
        </CharString>
        <CharString name="Abrevegrave">
          0 61 104 61 397 -20 70 224 callgsubr
          -107 callgsubr
          hintmask 00011100
          -27 callgsubr
          -55 91 118 callgsubr
          hintmask 00000010
          147 callsubr
          hintmask 00000100
          3 callgsubr
          hintmask 00000010
          28 callgsubr
        </CharString>
        <CharString name="Abrevehookabove">
          158 callsubr
          248 -64 callgsubr
          -27 callgsubr
          -48 158 -101 callsubr
        </CharString>
        <CharString name="Abrevetilde">
          158 callsubr
          89 149 callgsubr
          hintmask 11100000
          -107 callgsubr
          hintmask 00010100
          -27 callgsubr
          25 159 45 callgsubr
          hintmask 00001000
          -56 callgsubr
          hintmask 00000100
          -16 callgsubr
          hintmask 00001000
          93 callgsubr
          hintmask 00000100
          -58 callsubr
          hintmask 00001000
          0 callsubr
        </CharString>
        <CharString name="Acaron">
          39 callgsubr
          hstemhm
          -107 callgsubr
          154 268 -80 callgsubr
        </CharString>
        <CharString name="Acircumflex">
          39 callgsubr
          hstemhm
          -107 callgsubr
          157 281 -97 callsubr
          endchar
        </CharString>
        <CharString name="Acircumflexacute">
          39 callgsubr
          316 -92 callgsubr
          hintmask 00010000
          157 281 -39 callsubr
        </CharString>
        <CharString name="Acircumflexdotbelow">
          -200 100 100 46 callgsubr
          211 callsubr
          hintmask 01110000
          -107 callgsubr
          157 281 -97 callsubr
          hintmask 10001000
          -223 -871 -99 callgsubr
          endchar
        </CharString>
        <CharString name="Acircumflexgrave">
          39 callgsubr
          hstemhm
          -107 callgsubr
          157 281 -38 callgsubr
        </CharString>
        <CharString name="Acircumflexhookabove">
          39 callgsubr
          361 -92 callgsubr
          hintmask 00010000
          157 281 -97 callsubr
          105 171 -99 callsubr
        </CharString>
        <CharString name="Acircumflextilde">
          39 callgsubr
          202 149 callgsubr
          hintmask 11100000
          -107 callgsubr
          hintmask 00001000
          157 281 -97 callsubr
          76 172 71 callsubr
          hintmask 00010000
          79 callsubr
          hintmask 00001000
          34 callgsubr
          hintmask 00010000
          80 callgsubr
          hintmask 00001000
          93 callsubr
          hintmask 00010000
          -86 callsubr
        </CharString>
        <CharString name="Adblgrave">
          39 callgsubr
          hstemhm
          -107 callgsubr
          155 245 rmoveto
          -85 callgsubr
          66 -70 rcurveline
          12 -13 23 1 15 15 rrcurveto
          -194 hmoveto
          -85 callgsubr
          66 -70 rcurveline
          12 -13 23 1 15 15 rrcurveto
          endchar
        </CharString>
        <CharString name="Adieresis">
          39 callgsubr
          60 90 hstemhm
          238 90 105 90 hintmask 11100000
          -107 callgsubr
          hintmask 00011100
          -26 268 -86 callgsubr
          endchar
        </CharString>
        <CharString name="Adotbelow">
          -200 100 100 46 callgsubr
          211 callsubr
          hintmask 01110000
          -107 callgsubr
          hintmask 10001000
          -66 -590 -99 callgsubr
          endchar
        </CharString>
        <CharString name="Agrave">
          39 callgsubr
          91 -21 134 -64 callgsubr
          133 273 -84 callgsubr
        </CharString>
        <CharString name="Ahookabove">
          39 callgsubr
          92 -21 199 -64 callgsubr
          145 361 -99 callsubr
        </CharString>
        <CharString name="Alpha">
          39 callgsubr
          hstem
          -107 callgsubr
          endchar
        </CharString>
        <CharString name="Amacron">
          39 callgsubr
          80 63 hstemhm
          hintmask 11100000
          -107 callgsubr
          hintmask 00010000
          217 274 -76 callgsubr
        </CharString>
        <CharString name="Aogonek">
          -203 54 149 61 104 61 397 178 callsubr
          hintmask 0111101010000000
          38 callsubr
          hintmask 0100000100000000
          203 callsubr
          hintmask 1000010010000000
          51 callsubr
          -8 5 -23 -4 -7 -6 rrcurveto
          hintmask 1000001000000000
          -16 -13 -27 -21 -20 hhcurveto
          hintmask 0100010000000000
          109 callgsubr
          21 -6 0 6 hhcurveto
          hintmask 0010000100000000
          17 106 callgsubr
          -136 196 rmoveto
          -132 hlineto
          118 314 rlineto
          hintmask 0010000010000000
          endchar
        </CharString>
        <CharString name="Aogonekacute">
          -203 54 149 46 callgsubr
          91 -21 134 178 callsubr
          hintmask 0111001010100000
          38 callsubr
          hintmask 0100000001000000
          203 callsubr
          hintmask 1000000100100000
          51 callsubr
          -8 5 -23 -4 -7 -6 rrcurveto
          hintmask 1000000010000000
          -16 -13 -27 -21 -20 hhcurveto
          hintmask 0100000100000000
          109 callgsubr
          21 -6 0 6 hhcurveto
          hintmask 0010000001000000
          17 106 callgsubr
          -136 196 rmoveto
          -132 hlineto
          118 314 rlineto
          hintmask 0010000000100000
          hintmask 0000110010000000
          146 232 -104 callsubr
        </CharString>
        <CharString name="Aring">
          0 61 104 61 397 38 68 38 hstemhm
          282 50 94 50 hintmask 11100000
          -107 callgsubr
          hintmask 00111100
          72 255 rmoveto
          -19 -3 -27 -15 -23 hhcurveto
          -23 -21 15 226 callsubr
          3 26 15 23 hhcurveto
          23 22 -15 -19 36 callsubr
        </CharString>
        <CharString name="Aringacute">
          0 61 104 61 397 210 callgsubr
          hstemhm
          282 50 94 50 hintmask 11100000
          -107 callgsubr
          hintmask 00111110
          72 255 rmoveto
          -19 -3 -27 -15 -23 hhcurveto
          -23 -21 15 226 callsubr
          3 26 15 23 hhcurveto
          23 22 -15 -19 -45 callgsubr
          41 191 -104 callsubr
        </CharString>
        <CharString name="Atilde">
          39 callgsubr
          60 149 callgsubr
          hintmask 11100000
          -107 callgsubr
          hintmask 00001000
          209 311 -54 callsubr
          hintmask 00010000
          -56 callgsubr
          hintmask 00001000
          -77 callgsubr
          hintmask 00010000
          -48 callsubr
          hintmask 00001000
          -58 callsubr
          hintmask 00010000
          -86 callsubr
        </CharString>
        <CharString name="B">
          -3 callgsubr
        </CharString>
        <CharString name="Beta">
          -3 callgsubr
        </CharString>
        <CharString name="C">
          43 callgsubr
          hstem
          91 69 352 69 vstem
          -77 callsubr
          -183 -30 89 -134 130 hhcurveto
          116 101 89 90 15 hvcurveto
          endchar
        </CharString>
        <CharString name="Cacute">
          217 callsubr
          134 -20 hstemhm
          91 69 352 69 hintmask 11001100
          -77 callsubr
          -183 -30 89 -134 130 hhcurveto
          116 101 89 90 15 hvcurveto
          hintmask 00110000
          13 604 -104 callsubr
        </CharString>
        <CharString name="Ccaron">
          43 callgsubr
          hstemhm
          91 69 352 69 vstemhm
          -77 callsubr
          -183 -30 89 -134 130 hhcurveto
          116 101 89 90 15 hvcurveto
          23 540 -80 callgsubr
        </CharString>
        <CharString name="Ccedilla">
          43 callgsubr
          hstem
          91 69 111 69 14 69 89 69 vstem
          -77 callsubr
          -30 -179 85 -132 125 -6 -2 -13 rcurveline
          146 callgsubr
          -4 callsubr
          160 callsubr
          1 6 rcurveline
          90 24 69 73 12 74 rrcurveto
          endchar
        </CharString>
        <CharString name="Ccircumflex">
          43 callgsubr
          hstemhm
          91 69 352 69 vstemhm
          -77 callsubr
          -183 -30 89 -134 130 hhcurveto
          116 101 89 90 15 hvcurveto
          26 553 -97 callsubr
          endchar
        </CharString>
        <CharString name="Cdotaccent">
          43 callgsubr
          52 100 hstemhm
          91 69 200 100 52 69 hintmask 11010100
          -77 callsubr
          -183 -30 89 -134 130 hhcurveto
          116 101 89 90 15 hvcurveto
          hintmask 00101000
          -52 556 -34 callgsubr
          endchar
        </CharString>
        <CharString name="Chi">
          -7 callsubr
        </CharString>
        <CharString name="D">
          161 callsubr
          92 69 13 227 callsubr
          vstem
          -47 callgsubr
          endchar
        </CharString>
        <CharString name="Dcaron">
          81 callsubr
          92 69 13 227 callsubr
          vstemhm
          -47 callgsubr
          -21 407 -80 callgsubr
        </CharString>
        <CharString name="Dcroat">
          -17 callsubr
        </CharString>
        <CharString name="Ddotbelow">
          99 callgsubr
          hstemhm
          92 69 -36 100 -51 227 callsubr
          hintmask 01110110
          -47 callgsubr
          hintmask 10001000
          -241 -451 -99 callgsubr
          endchar
        </CharString>
        <CharString name="Delta">
          0 67 556 -20 hstem
          38 456 vstem
          494 22 rmoveto
          0 0 4 -2 14 vhcurveto
          -77 547 rlineto
          33 -5 -11 3 -33 hhcurveto
          -23 -22 0 -33 -16 hvcurveto
          -259 -550 rlineto
          -8 -15 0 -3 0 vvcurveto
          -22 -4 20 -23 callgsubr
          386 hlineto
          15 20 0 22 4 hvcurveto
          -78 45 rmoveto
          -286 hlineto
          178 378 44 95 rlineto
          1 hlineto
          1 -13 2 -28 8 -54 rrcurveto
          endchar
        </CharString>
        <CharString name="Dlinebelow">
          224 callsubr
          92 69 13 227 callsubr
          hintmask 01111100
          -47 callgsubr
          hintmask 10000000
          -102 -451 -76 callgsubr
        </CharString>
        <CharString name="E">
          34 callsubr
          21 callgsubr
          hintmask 11111100
          -103 callgsubr
          hintmask 10111010
          -101 callgsubr
          endchar
        </CharString>
        <CharString name="Eacute">
          34 callsubr
          83 -21 134 -20 21 callgsubr
          hintmask 1110011100000000
          -103 callgsubr
          hintmask 1010011010000000
          -101 callgsubr
          hintmask 0001100000000000
          -11 731 -104 callsubr
        </CharString>
        <CharString name="Ebreve">
          34 callsubr
          62 64 49 -20 21 callgsubr
          hintmask 1110011100000000
          -103 callgsubr
          hintmask 1010011010000000
          -101 callgsubr
          hintmask 0001100000000000
          56 714 -105 callsubr
          endchar
        </CharString>
        <CharString name="Ecaron">
          34 callsubr
          21 callgsubr
          hintmask 11111100
          -103 callgsubr
          hintmask 10111010
          -101 callgsubr
          hintmask 00000000
          -1 667 -80 callgsubr
        </CharString>
        <CharString name="Ecircumflex">
          34 callsubr
          21 callgsubr
          hintmask 11111100
          -103 callgsubr
          hintmask 10111010
          -101 callgsubr
          hintmask 00000000
          2 680 -97 callsubr
          endchar
        </CharString>
        <CharString name="Ecircumflexacute">
          34 callsubr
          308 -20 21 callgsubr
          hintmask 11101110
          -103 callgsubr
          hintmask 10101101
          -101 callgsubr
          hintmask 00010000
          2 680 -39 callsubr
        </CharString>
        <CharString name="Ecircumflexdotbelow">
          -200 100 100 35 callgsubr
          hstemhm
          107 69 12 100 -99 69 197 69 -30 69 hintmask 0111101100000000
          -103 callgsubr
          hintmask 0101101010000000
          -101 callgsubr
          2 680 -97 callsubr
          hintmask 1000010000000000
          -223 -871 -99 callgsubr
          endchar
        </CharString>
        <CharString name="Ecircumflexgrave">
          34 callsubr
          21 callgsubr
          hintmask 11111100
          -103 callgsubr
          hintmask 10111010
          -101 callgsubr
          hintmask 00000000
          2 680 -38 callgsubr
        </CharString>
        <CharString name="Ecircumflexhookabove">
          34 callsubr
          353 -20 21 callgsubr
          hintmask 11101110
          -103 callgsubr
          hintmask 10101101
          -101 callgsubr
          hintmask 00010000
          2 680 -97 callsubr
          105 171 -99 callsubr
        </CharString>
        <CharString name="Ecircumflextilde">
          34 callsubr
          194 65 -10 65 21 callgsubr
          hintmask 1110011100000000
          -103 callgsubr
          hintmask 1010011010000000
          -101 callgsubr
          hintmask 0000100000000000
          2 680 -97 callsubr
          76 172 71 callsubr
          hintmask 0001000000000000
          79 callsubr
          hintmask 0000100000000000
          34 callgsubr
          hintmask 0001000000000000
          80 callgsubr
          hintmask 0000100000000000
          93 callsubr
          hintmask 0001000000000000
          -86 callsubr
        </CharString>
        <CharString name="Edblgrave">
          34 callsubr
          21 callgsubr
          hintmask 11111100
          -103 callgsubr
          hintmask 10111010
          -101 callgsubr
          hintmask 00000000
          29 644 rmoveto
          -85 callgsubr
          66 -70 rcurveline
          12 -13 23 1 15 15 rrcurveto
          -194 hmoveto
          -85 callgsubr
          66 -70 rcurveline
          12 -13 23 1 15 15 rrcurveto
          endchar
        </CharString>
        <CharString name="Edieresis">
          34 callsubr
          52 90 hstemhm
          107 69 13 69 -20 90 105 90 -68 69 -30 69 hintmask 1110110010000000
          -103 callgsubr
          hintmask 1010110001000000
          -101 callgsubr
          hintmask 0001001100000000
          -181 667 -86 callgsubr
          endchar
        </CharString>
        <CharString name="Edotaccent">
          34 callsubr
          63 100 hstemhm
          107 69 13 69 76 100 21 69 -30 69 hintmask 1110110100000000
          -103 callgsubr
          hintmask 1010110010000000
          -101 callgsubr
          hintmask 0001001000000000
          -75 683 -34 callgsubr
          endchar
        </CharString>
        <CharString name="Edotbelow">
          -200 100 100 35 callgsubr
          hstemhm
          107 69 12 100 -99 69 197 69 -30 69 hintmask 0111101100000000
          -103 callgsubr
          hintmask 0101101010000000
          -101 callgsubr
          hintmask 1000010000000000
          -221 -191 -99 callgsubr
          endchar
        </CharString>
        <CharString name="Egrave">
          34 callsubr
          83 -21 134 -20 21 callgsubr
          hintmask 1110011100000000
          -103 callgsubr
          hintmask 1010011010000000
          -101 callgsubr
          hintmask 0001100000000000
          -22 672 -84 callgsubr
        </CharString>
        <CharString name="Ehookabove">
          34 callsubr
          84 -21 199 -20 21 callgsubr
          hintmask 1110011100000000
          -103 callgsubr
          hintmask 1010011010000000
          -101 callgsubr
          hintmask 0001100000000000
          -10 760 -99 callsubr
        </CharString>
        <CharString name="Emacron">
          34 callsubr
          72 63 21 callgsubr
          hintmask 11101110
          -103 callgsubr
          hintmask 10101101
          -101 callgsubr
          hintmask 00010000
          62 673 -76 callgsubr
        </CharString>
        <CharString name="Eng">
          -11 88 -77 54 callgsubr
          -59 70 hstemhm
          27 70 0 69 15 70 61 69 90 70 hintmask 0001001000000000
          541 306 rmoveto
          157 26 -36 159 -138 hhcurveto
          -52 -50 -20 -34 -40 hvcurveto
          hintmask 0110010000000000
          7 43 rlineto
          -94 40 callsubr
          -82 -489 rlineto
          -25 hlineto
          hintmask 0100101000000000
          129 callsubr
          hintmask 0101010110000000
          -25 hlineto
          61 366 rlineto
          69 21 63 56 70 hhcurveto
          102 8 -127 -119 -20 hvcurveto
          -16 -94 -18 -113 -49 -31 rrcurveto
          hintmask 1000000110000000
          6 -6 -9 3 -10 192 callgsubr
          128 40 167 150 25 hvcurveto
          endchar
        </CharString>
        <CharString name="Eogonek">
          -203 54 149 35 callgsubr
          201 callgsubr
          hintmask 0111110100000000
          -103 callgsubr
          hintmask 1101110010000000
          29 callsubr
          hintmask 1100001000000000
          -8 5 -23 -4 -7 -6 rrcurveto
          -16 -13 -27 -21 -20 hhcurveto
          109 callgsubr
          29 164 callsubr
        </CharString>
        <CharString name="Eogonekacute">
          -203 54 149 35 callgsubr
          83 -21 134 -20 201 callgsubr
          hintmask 0111001101000000
          -103 callgsubr
          hintmask 1101001100100000
          29 callsubr
          hintmask 1100000010000000
          -8 5 -23 -4 -7 -6 rrcurveto
          -16 -13 -27 -21 -20 hhcurveto
          109 callgsubr
          29 hlineto
          33 9 9 32 5 hvcurveto
          hintmask 0000110000000000
          -11 731 -104 callsubr
        </CharString>
        <CharString name="Epsilon">
          34 callsubr
          21 callgsubr
          hintmask 11111100
          -103 callgsubr
          hintmask 10111010
          -101 callgsubr
          endchar
        </CharString>
        <CharString name="Ereversed">
          34 callsubr
          hstem
          48 69 14 69 172 69 13 69 vstem
          507 30 rmoveto
          182 callgsubr
          -30 90 callsubr
          30 hlineto
          15 220 callsubr
          30 5 -26 -11 callgsubr
          -373 hlineto
          -34 -8 -10 -70 callgsubr
          -12 -73 rlineto
          -20 -3 -4 -21 142 callgsubr
          22 19 3 hvcurveto
          9 53 rlineto
          245 hlineto
          -34 -203 rlineto
          -131 hlineto
          41 7 2 16 -35 hhcurveto
          -34 -3 -22 -19 -3 hvcurveto
          -16 -93 -52 callsubr
          3 16 41 7 hvcurveto
          131 hlineto
          -38 -225 rlineto
          -267 hlineto
          12 69 rlineto
          20 3 4 21 -35 hhcurveto
          -34 -4 -22 -19 -3 hvcurveto
          -15 -89 rlineto
          -32 -5 5 -9 33 hhcurveto
          395 165 callgsubr
        </CharString>
        <CharString name="Eta">
          -68 callgsubr
          endchar
        </CharString>
        <CharString name="Eth">
          -17 callsubr
        </CharString>
        <CharString name="Etilde">
          34 callsubr
          52 65 -10 65 21 callgsubr
          hintmask 1110011100000000
          -103 callgsubr
          hintmask 1010011010000000
          -101 callgsubr
          hintmask 0000100000000000
          54 710 -54 callsubr
          hintmask 0001000000000000
          -56 callgsubr
          hintmask 0000100000000000
          -38 callsubr
          hintmask 0001000010000000
          -86 callsubr
        </CharString>
        <CharString name="Euro">
          -11 62 0 62 98 62 66 62 97 62 0 62 hstemhm
          167 70 243 70 hintmask 01111011
          470 18 rmoveto
          16 95 rlineto
          16 3 -11 13 -16 hhcurveto
          -12 hlineto
          -15 -14 -11 -14 -4 hvcurveto
          -38 -11 -38 -28 -39 hhcurveto
          -40 -24 33 36 -15 hvcurveto
          -12 28 -6 31 -1 32 rrcurveto
          143 hlineto
          11 10 7 10 4 hvcurveto
          8 22 rlineto
          12 5 -10 11 -14 hhcurveto
          -156 hlineto
          2 11 1 11 2 11 6 33 rcurveline
          183 hlineto
          11 11 7 10 4 hvcurveto
          8 22 rlineto
          12 4 -9 11 -14 hhcurveto
          -179 hlineto
          13 31 16 31 21 29 rrcurveto
          35 27 35 33 40 hhcurveto
          39 28 -28 -38 -1 hvcurveto
          -14 -1 10 -11 15 hhcurveto
          12 hlineto
          16 15 13 16 3 hvcurveto
          16 95 rlineto
          hintmask 10110110
          16 3 -11 13 -16 hhcurveto
          -4 hlineto
          -9 -9 -4 -6 -6 hvcurveto
          -13 -13 rlineto
          15 -22 -28 8 -31 hhcurveto
          -63 -58 -44 -54 -42 hvcurveto
          -29 -38 -21 -42 -16 -43 rrcurveto
          -35 hlineto
          -11 -10 -8 -10 -5 hvcurveto
          -6 -16 rlineto
          -14 -6 9 -14 14 hhcurveto
          32 hlineto
          -6 -33 -2 -11 -1 -11 -2 -11 rlinecurve
          -28 hlineto
          -10 -11 -8 -10 -4 hvcurveto
          -6 -16 rlineto
          -14 -6 8 -14 15 hhcurveto
          40 hlineto
          1 -44 7 -41 17 -39 rrcurveto
          -54 23 44 -44 62 hhcurveto
          31 31 8 15 28 hvcurveto
          8 -12 rlineto
          -7 4 8 -4 9 hhcurveto
          3 hlineto
          16 15 13 16 3 hvcurveto
          endchar
        </CharString>
        <CharString name="F">
          0 61 214 200 callgsubr
          hstemhm
          112 69 -56 69 0 69 172 69 0 69 cntrmask 11100000
          hintmask 11101000
          573 27 callgsubr
          -381 hlineto
          -16 -31 callsubr
          26 -23 callgsubr
          33 hlineto
          hintmask 11110110
          -21 callgsubr
          -33 hlineto
          -16 -31 callsubr
          26 -23 callgsubr
          154 4 callgsubr
          -24 0 -16 hhcurveto
          -52 82 callgsubr
          136 hlineto
          -41 -7 -3 -16 142 callgsubr
          22 19 3 hvcurveto
          16 93 81 callgsubr
          -16 -41 -7 hvcurveto
          -136 82 callgsubr
          250 hlineto
          -9 -53 rlineto
          -19 -3 -4 -22 34 hhcurveto
          hintmask 11100001
          134 callsubr
          endchar
        </CharString>
        <CharString name="G">
          -11 74 callsubr
          hintmask 11111000
          -94 callsubr
          hintmask 00000100
          135 callgsubr
          hintmask 00001000
          34 4 22 19 3 hvcurveto
          hintmask 01000100
          73 callsubr
          endchar
        </CharString>
        <CharString name="Gacute">
          -11 120 callsubr
          72 137 callgsubr
          89 69 229 69 -41 69 hintmask 11100110
          -94 callsubr
          hintmask 00000001
          135 callgsubr
          hintmask 00000010
          34 4 22 19 3 hvcurveto
          hintmask 01000001
          73 callsubr
          hintmask 00011000
          -38 532 -104 callsubr
        </CharString>
        <CharString name="Gamma">
          161 callsubr
          119 69 13 69 232 69 vstem
          571 27 callgsubr
          -376 -81 callsubr
          37 53 callsubr
          -37 -81 callsubr
          162 hlineto
          26 callsubr
          -56 90 callsubr
          241 hlineto
          -9 -53 -52 callsubr
          4 21 20 3 hvcurveto
          endchar
        </CharString>
        <CharString name="Gbreve">
          -11 120 callsubr
          51 64 49 -20 hstemhm
          89 69 229 69 -41 69 hintmask 11100110
          -94 callsubr
          hintmask 00000001
          135 callgsubr
          hintmask 00000010
          34 4 22 19 3 hvcurveto
          hintmask 01000001
          73 callsubr
          hintmask 00011000
          29 515 -105 callsubr
          endchar
        </CharString>
        <CharString name="Gcaron">
          -11 74 callsubr
          hintmask 11111000
          -94 callsubr
          hintmask 00000100
          135 callgsubr
          hintmask 00001000
          34 4 22 19 3 hvcurveto
          hintmask 01000100
          73 callsubr
          hintmask 00000000
          -28 468 -80 callgsubr
        </CharString>
        <CharString name="Gcedilla">
          78 callsubr
          22 74 callsubr
          hintmask 00111110
          -94 callsubr
          hintmask 00000001
          135 callgsubr
          hintmask 00000010
          34 4 22 19 3 hvcurveto
          hintmask 11010001
          73 callsubr
          -229 -348 -103 callsubr
        </CharString>
        <CharString name="Gcircumflex">
          -11 74 callsubr
          hintmask 11111000
          -94 callsubr
          hintmask 00000100
          135 callgsubr
          hintmask 00001000
          34 4 22 19 3 hvcurveto
          hintmask 01000100
          73 callsubr
          hintmask 00000000
          -25 481 -97 callsubr
          endchar
        </CharString>
        <CharString name="Gcommaaccent">
          78 callsubr
          22 74 callsubr
          hintmask 00111110
          -94 callsubr
          hintmask 00000001
          135 callgsubr
          hintmask 00000010
          34 4 22 19 3 hvcurveto
          hintmask 00010001
          73 callsubr
          hintmask 11000000
          -229 -348 -103 callsubr
        </CharString>
        <CharString name="Gdotaccent">
          -11 120 callsubr
          52 100 hstemhm
          89 69 176 100 -47 69 -41 69 hintmask 11101010
          -94 callsubr
          hintmask 00000001
          135 callgsubr
          hintmask 00000010
          34 4 22 19 3 hvcurveto
          hintmask 01000001
          73 callsubr
          hintmask 00010100
          -102 484 -34 callgsubr
          endchar
        </CharString>
        <CharString name="H">
          -68 callgsubr
          endchar
        </CharString>
        <CharString name="H_uni0303">
          152 callsubr
          52 149 callgsubr
          185 callgsubr
          -44 69 -59 69 95 69 13 69 hintmask 1110000011100000
          -57 callgsubr
          hintmask 0010001000000000
          34 202 rlineto
          hintmask 0010000100000000
          25 -56 callsubr
          hintmask 0010000010000000
          53 callgsubr
          -119 -81 callsubr
          hintmask 1010011000000000
          -40 callsubr
          hintmask 1100000101000000
          38 226 rlineto
          212 hlineto
          -38 -226 -59 callgsubr
          119 -56 callsubr
          hintmask 0000100000000000
          56 721 -54 callsubr
          hintmask 0001000000000000
          -56 callgsubr
          hintmask 0000100100000000
          -51 callsubr
        </CharString>
        <CharString name="Hbar">
          0 187 callgsubr
          79 62 0 61 0 61 hstemhm
          97 69 -8 69 -58 69 -59 69 -44 69 -59 69 95 69 -8 69 -58 69 -59 69 hintmask 1000000000010000
          507 30 -12 callsubr
          -25 hlineto
          hintmask 0010000000001000
          61 366 rlineto
          30 hlineto
          17 17 14 17 2 hvcurveto
          17 3 -11 14 -17 hhcurveto
          hintmask 0010000000000100
          -30 hlineto
          hintmask 0001000000000010
          10 61 60 callsubr
          hintmask 0000100000000010
          53 callgsubr
          -119 14 callgsubr
          hintmask 0010000100000100
          -10 -61 rlineto
          -212 hlineto
          hintmask 0001000010000000
          10 61 rlineto
          hintmask 0001000001000000
          25 -56 callsubr
          hintmask 0000100000100000
          53 callgsubr
          -119 -81 callsubr
          hintmask 0001000010000000
          25 hlineto
          hintmask 0010000100000000
          -10 -61 rlineto
          -30 hlineto
          -17 -17 -14 -17 -3 hvcurveto
          -17 -2 11 -14 17 hhcurveto
          hintmask 0010001000000000
          30 hlineto
          hintmask 1100010001010000
          -61 -366 rlineto
          -25 hlineto
          129 callsubr
          -25 hlineto
          38 226 rlineto
          212 hlineto
          -38 -226 -59 callgsubr
          119 -56 callsubr
          -81 318 rmoveto
          hintmask 0100000000100000
          -212 hlineto
          hintmask 0110001000001000
          13 79 rlineto
          212 hlineto
          endchar
        </CharString>
        <CharString name="Hbrevebelow">
          -206 64 49 -20 113 166 callsubr
          hstemhm
          185 callgsubr
          -44 69 -59 69 95 69 13 69 hintmask 0011100011100000
          -57 callgsubr
          hintmask 0000101000000000
          34 202 rlineto
          hintmask 0000100100000000
          25 -56 callsubr
          hintmask 0000100010000000
          53 callgsubr
          -119 -81 callsubr
          hintmask 0010111000000000
          -40 callsubr
          hintmask 0011000101000000
          38 226 rlineto
          212 hlineto
          -38 -226 -59 callgsubr
          119 -56 callsubr
          hintmask 1100000000000000
          -89 -154 -1 callgsubr
        </CharString>
        <CharString name="Hcircumflex">
          -68 callgsubr
          hintmask 0000000000000000
          4 691 -97 callsubr
          endchar
        </CharString>
        <CharString name="Hdieresis">
          152 callsubr
          52 90 hstemhm
          185 callgsubr
          -44 69 -59 69 -45 90 50 69 -14 90 -63 69 hintmask 1110000101010000
          -57 callgsubr
          hintmask 0010010000000000
          34 202 rlineto
          hintmask 0010001000000000
          25 -56 callsubr
          hintmask 0010000100000000
          53 callgsubr
          -119 -81 callsubr
          hintmask 1010110000000000
          -40 callsubr
          hintmask 1100001001000000
          38 226 rlineto
          212 hlineto
          -38 -226 -59 callgsubr
          119 -56 callsubr
          hintmask 0001000010100000
          -179 678 -86 callgsubr
          endchar
        </CharString>
        <CharString name="Hdotbelow">
          -200 100 100 166 callsubr
          hstemhm
          185 callgsubr
          -60 100 -84 69 -59 69 95 69 13 69 hintmask 0111000011100000
          -57 callgsubr
          hintmask 0001010000000000
          34 202 rlineto
          hintmask 0001000100000000
          25 -56 callsubr
          hintmask 0001000010000000
          53 callgsubr
          -119 -81 callsubr
          hintmask 0101110000000000
          -40 callsubr
          hintmask 0110000101000000
          38 226 rlineto
          212 hlineto
          -38 -226 -59 callgsubr
          119 -56 callsubr
          hintmask 1000001000000000
          -219 -180 -99 callgsubr
          endchar
        </CharString>
        <CharString name="I">
          161 callsubr
          238 69 13 69 vstem
          -100 callsubr
          endchar
        </CharString>
        <CharString name="Iacute">
          2 callgsubr
          83 -21 134 -13 callsubr
          hintmask 00110000
          47 742 -104 callsubr
        </CharString>
        <CharString name="Ibreve">
          2 callgsubr
          62 64 49 -13 callsubr
          hintmask 00110000
          114 725 -105 callsubr
          endchar
        </CharString>
        <CharString name="Icaron">
          81 callsubr
          238 69 13 69 vstemhm
          -100 callsubr
          57 678 -80 callgsubr
        </CharString>
        <CharString name="Icircumflex">
          81 callsubr
          238 69 13 69 vstemhm
          -100 callsubr
          60 691 -97 callsubr
          endchar
        </CharString>
        <CharString name="Idblgrave">
          81 callsubr
          238 69 13 69 vstemhm
          -100 callsubr
          87 655 rmoveto
          -85 callgsubr
          66 -70 rcurveline
          12 -13 23 1 15 15 rrcurveto
          -194 hmoveto
          -85 callgsubr
          66 -70 rcurveline
          12 -13 23 1 15 15 rrcurveto
          endchar
        </CharString>
        <CharString name="Idieresis">
          2 callgsubr
          52 90 hstemhm
          238 69 -69 90 -8 69 44 90 hintmask 11010100
          -100 callsubr
          hintmask 00110000
          -123 678 74 callgsubr
          hintmask 00101010
          55 callsubr
        </CharString>
        <CharString name="Idieresisacute">
          2 callgsubr
          52 90 82 137 callgsubr
          238 69 -69 90 -8 69 44 90 hintmask 1100010100000000
          -100 callsubr
          hintmask 0010010000000000
          -123 678 74 callgsubr
          hintmask 0011101010000000
          25 callgsubr
          -1 205 -104 callsubr
        </CharString>
        <CharString name="Idotaccent">
          2 callgsubr
          63 100 hstemhm
          238 69 13 69 -55 100 hintmask 11011000
          -100 callsubr
          hintmask 00100100
          -17 694 -34 callgsubr
          endchar
        </CharString>
        <CharString name="Idotbelow">
          99 callgsubr
          hstemhm
          188 100 -50 69 13 69 hintmask 01101100
          -100 callsubr
          hintmask 10010000
          -163 -180 -99 callgsubr
          endchar
        </CharString>
        <CharString name="Igrave">
          2 callgsubr
          83 -21 134 -13 callsubr
          hintmask 00111000
          36 683 -84 callgsubr
        </CharString>
        <CharString name="Ihookabove">
          2 callgsubr
          84 -21 199 -13 callsubr
          hintmask 00110100
          48 771 -99 callsubr
        </CharString>
        <CharString name="Imacron">
          2 callgsubr
          72 63 hstemhm
          238 69 13 69 hintmask 11011000
          -100 callsubr
          hintmask 00110000
          120 684 -76 callgsubr
        </CharString>
        <CharString name="Imacron.alt">
          2 callgsubr
          72 63 hstemhm
          238 69 13 69 hintmask 11011000
          -100 callsubr
          hintmask 00100000
          32 684 107 callsubr
        </CharString>
        <CharString name="Iogonek">
          -183 49 134 54 callgsubr
          hstemhm
          238 69 -56 69 0 69 hintmask 01110100
          -100 callgsubr
          118 hlineto
          -32 -24 -23 -35 -6 -38 rrcurveto
          hintmask 11001000
          73 callgsubr
          endchar
        </CharString>
        <CharString name="Iogonekacute">
          -183 49 134 54 callgsubr
          83 137 callgsubr
          238 69 -56 69 0 69 hintmask 01100101
          -100 callgsubr
          118 hlineto
          -32 -24 -23 -35 -6 -38 rrcurveto
          hintmask 11000010
          73 callgsubr
          hintmask 00011000
          47 742 -104 callsubr
        </CharString>
        <CharString name="Iota">
          161 callsubr
          238 69 13 69 vstem
          -100 callsubr
          endchar
        </CharString>
        <CharString name="Itilde">
          2 callgsubr
          52 65 -10 65 -42 callgsubr
          hintmask 00010000
          112 721 -97 callgsubr
        </CharString>
        <CharString name="J">
          111 callgsubr
          hstemhm
          88 89 184 69 0 69 hintmask 11110000
          -30 callgsubr
          hintmask 01001000
          70 416 rlineto
          30 hlineto
          16 62 callgsubr
          endchar
        </CharString>
        <CharString name="J_uni030C.cap">
          -11 61 384 -21 104 94 -61 61 hstemhm
          88 89 184 69 0 69 hintmask 10011100
          -30 callgsubr
          hintmask 00010010
          70 416 rlineto
          30 hlineto
          16 62 callgsubr
          156 -45 rmoveto
          46 8 -24 29 -33 hhcurveto
          -30 -22 -22 -24 -4 hvcurveto
          hintmask 01100000
          43 callsubr
        </CharString>
        <CharString name="Jacute">
          111 callgsubr
          83 137 callgsubr
          88 89 184 69 0 69 hintmask 11001100
          -30 callgsubr
          hintmask 01000010
          70 416 rlineto
          30 hlineto
          16 62 callgsubr
          hintmask 00110100
          8 191 -104 callsubr
        </CharString>
        <CharString name="Jcircumflex">
          111 callgsubr
          hstemhm
          88 89 184 69 0 69 hintmask 11110000
          -30 callgsubr
          hintmask 01001000
          70 416 rlineto
          30 hlineto
          16 62 callgsubr
          hintmask 00000000
          21 140 -97 callsubr
          endchar
        </CharString>
        <CharString name="K">
          -19 callsubr
        </CharString>
        <CharString name="Kappa">
          -19 callsubr
        </CharString>
        <CharString name="Kcedilla">
          -3 callsubr
          hintmask 11100100
          25 callsubr
          -193 -138 -103 callsubr
        </CharString>
        <CharString name="Kcommaaccent">
          -3 callsubr
          hintmask 00100100
          25 callsubr
          hintmask 11000000
          -193 -138 -103 callsubr
        </CharString>
        <CharString name="L">
          0 61 489 214 callgsubr
          hintmask 11110100
          -36 callsubr
          hintmask 11111000
          -74 callgsubr
          endchar
        </CharString>
        <CharString name="L_uni0303">
          2 callgsubr
          52 65 -10 65 144 callsubr
          hintmask 11001101
          -36 callsubr
          hintmask 11001110
          -74 callgsubr
          hintmask 00010000
          -51 710 -97 callgsubr
        </CharString>
        <CharString name="Lacute">
          2 callgsubr
          83 -21 134 -20 144 callsubr
          hintmask 11001101
          -36 callsubr
          hintmask 11001110
          -74 callgsubr
          hintmask 00110000
          -116 731 -104 callsubr
        </CharString>
        <CharString name="Lambda">
          0 61 562 -20 hstem
          34 466 vstem
          181 callsubr
          -21 0 -36 hhcurveto
          -33 525 rlineto
          37 -3 -20 0 -21 hhcurveto
          -10 hlineto
          -20 -21 0 -34 -14 hvcurveto
          -210 -528 rlineto
          -36 -21 -89 callgsubr
          26 -23 callgsubr
          108 26 callgsubr
          -21 hlineto
          130 331 20 50 24 61 10 35 rlinecurve
          1 hlineto
          -1 -28 2 -26 1 -32 23 -391 rcurveline
          -21 hlineto
          -15 41 callgsubr
          108 165 callgsubr
        </CharString>
        <CharString name="Lcaron">
          0 61 373 -21 104 94 -61 214 callgsubr
          hintmask 10011101
          -36 callsubr
          hintmask 10011110
          -74 callgsubr
          52 495 rmoveto
          46 8 -24 29 -33 hhcurveto
          -30 -22 -22 -24 -4 hvcurveto
          hintmask 01100000
          43 callsubr
        </CharString>
        <CharString name="Lcedilla">
          -210 -21 104 94 33 61 489 214 callgsubr
          hintmask 00111101
          -36 callsubr
          hintmask 11111110
          -74 callgsubr
          -188 -149 -103 callsubr
        </CharString>
        <CharString name="Lcommaaccent">
          -210 -21 104 94 33 61 489 214 callgsubr
          hintmask 00111101
          -36 callsubr
          hintmask 00111110
          -74 callgsubr
          hintmask 11000000
          -188 -149 -103 callsubr
        </CharString>
        <CharString name="Ldot">
          0 61 206 100 183 214 callgsubr
          hintmask 10111010
          -36 callsubr
          hintmask 11111100
          -74 callgsubr
          14 276 -99 callgsubr
          endchar
        </CharString>
        <CharString name="Ldotbelow">
          99 callgsubr
          hstemhm
          119 69 0 100 -87 162 callgsubr
          hintmask 01110101
          -36 callsubr
          hintmask 01110110
          -74 callgsubr
          hintmask 10010000
          150 callgsubr
          hintmask 00001000
          -23 callsubr
          endchar
        </CharString>
        <CharString name="Ldotbelowmacron">
          99 callgsubr
          72 63 hstemhm
          119 69 0 100 -87 162 callgsubr
          hintmask 0110101010000000
          -36 callsubr
          hintmask 1110101100000000
          -74 callgsubr
          150 callgsubr
          hintmask 0000010000000000
          -23 callsubr
          hintmask 0001000000000000
          174 864 -76 callgsubr
        </CharString>
        <CharString name="Lslash">
          0 61 489 214 callgsubr
          hintmask 11110100
          495 122 callsubr
          20 3 4 21 148 callsubr
          -20 -21 -3 hvcurveto
          -12 -69 rlineto
          -241 hlineto
          41 247 225 137 177 callsubr
          -189 -117 rcurveline
          29 172 rlineto
          56 hlineto
          hintmask 11111000
          26 callsubr
          -162 -81 callsubr
          37 hlineto
          -36 -214 -76 -50 -14 -9 -8 -18 7 -14 rlinecurve
          1 hlineto
          6 -13 17 -5 16 11 39 27 rcurveline
          -34 -204 rlineto
          -37 -81 callsubr
          376 164 callsubr
        </CharString>
        <CharString name="M">
          0 61 165 61 263 61 hstem
          296 56 0 56 0 56 cntrmask 00011100
          -61 callsubr
          endchar
        </CharString>
        <CharString name="Mdotbelow">
          128 callgsubr
          165 61 263 61 hstemhm
          80 56 23 56 -27 100 8 56 56 56 49 56 hintmask 0111110111000000
          -61 callsubr
          hintmask 1000001000000000
          -224 -180 -99 callgsubr
          endchar
        </CharString>
        <CharString name="Mu">
          0 61 165 61 263 61 hstem
          80 56 23 56 81 56 56 56 49 56 vstem
          -61 callsubr
          endchar
        </CharString>
        <CharString name="N">
          161 callsubr
          184 callsubr
          vstem
          -98 callsubr
          endchar
        </CharString>
        <CharString name="Nacute">
          2 callgsubr
          83 137 callgsubr
          184 callsubr
          hintmask 11001100
          -98 callsubr
          hintmask 00110000
          -95 192 -104 callsubr
        </CharString>
        <CharString name="Ncaron">
          81 callsubr
          184 callsubr
          vstemhm
          -98 callsubr
          -85 128 -80 callgsubr
        </CharString>
        <CharString name="Ncedilla">
          97 callsubr
          hstem
          184 callsubr
          vstem
          -98 callsubr
          -286 -688 -103 callsubr
        </CharString>
        <CharString name="Ncommaaccent">
          85 callsubr
          184 callsubr
          hintmask 00111100
          -98 callsubr
          hintmask 11000000
          -286 -688 -103 callsubr
        </CharString>
        <CharString name="Ndotaccent">
          2 callgsubr
          52 100 hstemhm
          103 56 173 100 35 56 hintmask 11010100
          -98 callsubr
          hintmask 00101000
          -161 133 -34 callgsubr
          endchar
        </CharString>
        <CharString name="Ndotbelow">
          99 callgsubr
          hstemhm
          103 56 29 100 179 56 hintmask 01110100
          -98 callsubr
          hintmask 10001000
          -305 -730 -99 callgsubr
          endchar
        </CharString>
        <CharString name="Ntilde">
          2 callgsubr
          52 149 callgsubr
          184 callsubr
          hintmask 11001100
          -98 callsubr
          hintmask 00010000
          -30 171 -97 callgsubr
        </CharString>
        <CharString name="Nu">
          161 callsubr
          184 callsubr
          vstem
          -98 callsubr
          endchar
        </CharString>
        <CharString name="O">
          43 callgsubr
          hstem
          -105 callgsubr
          endchar
        </CharString>
        <CharString name="OE">
          -28 callgsubr
        </CharString>
        <CharString name="OE.dup">
          -28 callgsubr
        </CharString>
        <CharString name="Oacute">
          187 callsubr
          -105 callgsubr
          hintmask 00110000
          47 458 -104 callsubr
        </CharString>
        <CharString name="Obreve">
          43 callgsubr
          51 64 49 -20 hstemhm
          hintmask 11000000
          -105 callgsubr
          hintmask 00110000
          114 441 -105 callsubr
          endchar
        </CharString>
        <CharString name="Ocaron">
          43 callgsubr
          hstemhm
          -105 callgsubr
          57 394 -80 callgsubr
        </CharString>
        <CharString name="Ocircumflex">
          43 callgsubr
          hstemhm
          -105 callgsubr
          60 407 -97 callsubr
          endchar
        </CharString>
        <CharString name="Ocircumflexacute">
          43 callgsubr
          297 -20 hstemhm
          hintmask 11000000
          -105 callgsubr
          hintmask 00100000
          60 407 -39 callsubr
        </CharString>
        <CharString name="Ocircumflexdotbelow">
          140 callgsubr
          -105 callgsubr
          60 407 -97 callsubr
          hintmask 10010000
          -223 -871 -99 callgsubr
          endchar
        </CharString>
        <CharString name="Ocircumflexgrave">
          43 callgsubr
          hstemhm
          -105 callgsubr
          60 407 -38 callgsubr
        </CharString>
        <CharString name="Ocircumflexhookabove">
          43 callgsubr
          342 -20 hstemhm
          hintmask 11000000
          -105 callgsubr
          hintmask 00100000
          60 407 -97 callsubr
          105 171 -99 callsubr
        </CharString>
        <CharString name="Ocircumflextilde">
          43 callgsubr
          183 149 callgsubr
          hintmask 11000000
          -105 callgsubr
          hintmask 00010000
          60 407 -97 callsubr
          76 172 71 callsubr
          hintmask 00100000
          79 callsubr
          hintmask 00010000
          34 callgsubr
          hintmask 00100000
          80 callgsubr
          hintmask 00010000
          93 callsubr
          hintmask 00100000
          -86 callsubr
        </CharString>
        <CharString name="Odblgrave">
          43 callgsubr
          hstemhm
          -105 callgsubr
          87 371 rmoveto
          -85 callgsubr
          66 -70 rcurveline
          12 -13 23 1 15 15 rrcurveto
          -194 hmoveto
          -85 callgsubr
          66 -70 rcurveline
          12 -13 23 1 15 15 rrcurveto
          endchar
        </CharString>
        <CharString name="Odieresis">
          43 callgsubr
          41 90 hstemhm
          238 90 105 90 hintmask 11000000
          -105 callgsubr
          hintmask 00111000
          -123 394 -86 callgsubr
          endchar
        </CharString>
        <CharString name="Odotbelow">
          140 callgsubr
          -105 callgsubr
          hintmask 10010000
          -163 -464 -99 callgsubr
          endchar
        </CharString>
        <CharString name="Ograve">
          187 callsubr
          -105 callgsubr
          hintmask 00110000
          36 399 -84 callgsubr
        </CharString>
        <CharString name="Ohookabove">
          43 callgsubr
          73 197 callgsubr
          hintmask 11000000
          -105 callgsubr
          hintmask 00110000
          48 487 -99 callsubr
        </CharString>
        <CharString name="Ohorn">
          43 callgsubr
          89 -20 hstem
          365 98 vstem
          -91 callsubr
          endchar
        </CharString>
        <CharString name="Ohornacute">
          217 callsubr
          38 -20 116 -20 hstemhm
          365 98 hintmask 11010100
          -91 callsubr
          hintmask 00101000
          19 454 -104 callsubr
        </CharString>
        <CharString name="Ohorndotbelow">
          -200 100 89 82 callsubr
          89 -20 211 callsubr
          77 98 hintmask 01110100
          -91 callsubr
          hintmask 10001000
          -162 -468 -99 callgsubr
          endchar
        </CharString>
        <CharString name="Ohorngrave">
          217 callsubr
          38 -20 116 -20 hstemhm
          365 98 hintmask 11010100
          -91 callsubr
          hintmask 00101000
          8 395 -84 callgsubr
        </CharString>
        <CharString name="Ohornhookabove">
          43 callgsubr
          73 -21 37 -20 182 -20 hstemhm
          365 98 hintmask 11010100
          -91 callsubr
          hintmask 00101000
          49 483 -99 callsubr
        </CharString>
        <CharString name="Ohorntilde">
          43 callgsubr
          41 149 callgsubr
          365 98 hintmask 11001000
          -91 callsubr
          hintmask 00010000
          84 433 -97 callgsubr
        </CharString>
        <CharString name="Ohungarumlaut">
          43 callgsubr
          hstemhm
          -105 callgsubr
          -87 487 rmoveto
          0 callgsubr
          194 hmoveto
          0 callgsubr
          endchar
        </CharString>
        <CharString name="Omacron">
          43 callgsubr
          61 63 hstemhm
          hintmask 11000000
          -105 callgsubr
          hintmask 00100000
          120 400 -76 callgsubr
        </CharString>
        <CharString name="Omega">
          -12 callgsubr
        </CharString>
        <CharString name="Omicron">
          43 callgsubr
          hstem
          -105 callgsubr
          endchar
        </CharString>
        <CharString name="Oogonek">
          43 callgsubr
          hstem
          519 305 rmoveto
          289 48 -16 28 -185 hhcurveto
          -185 -26 -27 -290 -48 hvcurveto
          -44 -266 10 -44 146 -5 -26 -24 -17 -31 -5 -32 rrcurveto
          -67 callsubr
          6 35 21 32 28 21 167 2 27 35 47 279 rrcurveto
          -68 9 rmoveto
          -10 -62 -12 -71 -20 -54 rrcurveto
          -56 -20 -30 -21 -89 hhcurveto
          -88 -21 21 50 -4 hvcurveto
          -3 51 14 87 9 55 11 62 11 68 19 46 rrcurveto
          59 23 33 12 82 hhcurveto
          75 33 -9 -55 6 hvcurveto
          4 -47 -12 -75 -11 -61 rrcurveto
          endchar
        </CharString>
        <CharString name="Oogonekacute">
          187 callsubr
          519 305 rmoveto
          289 48 -16 28 -185 hhcurveto
          -185 -26 -27 -290 -48 hvcurveto
          -44 -266 10 -44 146 -5 -26 -24 -17 -31 -5 -32 rrcurveto
          -67 callsubr
          6 35 21 32 28 21 167 2 27 35 47 279 rrcurveto
          -68 9 rmoveto
          -10 -62 -12 -71 -20 -54 rrcurveto
          -56 -20 -30 -21 -89 hhcurveto
          -88 -21 21 50 -4 hvcurveto
          -3 51 14 87 9 55 11 62 11 68 19 46 rrcurveto
          59 23 33 12 82 hhcurveto
          75 33 -9 -55 6 hvcurveto
          4 -47 -12 -75 -11 -61 rrcurveto
          hintmask 00110000
          47 458 -104 callsubr
        </CharString>
        <CharString name="Orogate">
          519 305 rmoveto
          45 272 -12 41 -155 4 21 127 rcurveline
          17 -14 14 -17 -16 -12 -12 -14 -3 vhcurveto
          -22 -132 -156 -4 -26 -40 -45 -273 rlinecurve
          -45 -272 11 -40 156 -4 -21 -126 206 callgsubr
          132 155 4 27 40 45 272 rlinecurve
          -68 9 rmoveto
          -10 -62 -12 -71 -20 -54 rrcurveto
          -56 -20 -30 -21 -89 hhcurveto
          -88 -21 21 50 -4 hvcurveto
          -3 51 14 87 9 55 11 62 11 68 19 46 rrcurveto
          59 23 33 12 82 hhcurveto
          75 33 -9 -55 6 hvcurveto
          4 -47 -12 -75 -11 -61 rrcurveto
          endchar
        </CharString>
        <CharString name="Oslash">
          -64 -21 74 82 callsubr
          74 -20 hstem
          107 56 300 56 vstem
          -62 callsubr
          endchar
        </CharString>
        <CharString name="Oslash.dup">
          -64 -21 74 82 callsubr
          74 -20 hstem
          107 56 300 56 vstem
          -62 callsubr
          endchar
        </CharString>
        <CharString name="Oslashacute">
          -64 -21 74 82 callsubr
          72 -21 23 -20 131 -20 hstemhm
          107 56 300 56 hintmask 11101011
          -62 callsubr
          hintmask 00010100
          28 466 -104 callsubr
        </CharString>
        <CharString name="Otilde">
          43 callgsubr
          41 149 callgsubr
          hintmask 11000000
          -105 callgsubr
          hintmask 00010000
          112 437 -97 callgsubr
        </CharString>
        <CharString name="P">
          9 callsubr
        </CharString>
        <CharString name="Phi">
          0 61 94 61 179 61 94 61 hstem
          238 69 -28 69 -28 69 cntrmask 00001110
          535 305 rmoveto
          12 75 -68 65 -106 11 16 94 rcurveline
          41 -26 callgsubr
          31 5 -26 -11 callgsubr
          -151 hlineto
          -15 -26 -83 callsubr
          26 -23 callgsubr
          41 hlineto
          -16 -94 -113 -11 -88 -67 -12 -72 rlinecurve
          -13 -76 71 -65 105 -10 -16 -94 rcurveline
          -41 hlineto
          -15 -26 -83 callsubr
          26 -23 callgsubr
          151 -26 callgsubr
          31 5 -26 -11 callgsubr
          -41 hlineto
          16 94 113 12 87 67 12 71 rlinecurve
          -271 -89 rmoveto
          -70 10 -41 38 7 41 7 44 57 37 70 9 rrcurveto
          172 -89 rmoveto
          -8 -47 -61 -34 -64 -9 30 179 rcurveline
          65 -9 45 -37 -7 -43 rrcurveto
          endchar
        </CharString>
        <CharString name="Pi">
          161 callsubr
          185 callgsubr
          130 69 13 69 vstem
          507 30 -12 callsubr
          -25 hlineto
          82 489 31 callsubr
          -400 hlineto
          -16 -24 0 -31 -5 hvcurveto
          -30 -5 25 0 15 hhcurveto
          -40 callsubr
          82 489 rlineto
          212 hlineto
          -82 -489 -59 callgsubr
          119 -56 callsubr
          endchar
        </CharString>
        <CharString name="Psi">
          0 61 361 61 67 61 hstemhm
          134 69 35 69 -53 69 -58 69 -14 69 hintmask 01000010
          561 452 rmoveto
          31 6 -26 0 -10 hhcurveto
          -71 -15 -74 -39 -6 hvcurveto
          -9 -55 -22 -74 -74 -22 rrcurveto
          hintmask 00100001
          55 331 rlineto
          35 26 callgsubr
          -139 hlineto
          -16 -31 callsubr
          26 -23 callgsubr
          35 hlineto
          hintmask 01010010
          -55 -331 -68 21 2 71 10 60 rlinecurve
          51 8 3 61 -65 hhcurveto
          -10 -26 0 -31 -6 hvcurveto
          -4 -24 18 -4 7 -2 13 -3 -5 -34 -4 -27 rrcurveto
          hintmask 00000100
          -12 -75 11 -106 117 -21 rrcurveto
          hintmask 10011000
          -16 -95 rlineto
          -35 hlineto
          -16 -31 callsubr
          26 -23 callgsubr
          139 26 callgsubr
          -35 hlineto
          hintmask 01000100
          16 95 125 21 44 103 15 88 rlinecurve
          3 14 6 37 14 3 9 2 18 4 4 24 rrcurveto
          endchar
        </CharString>
        <CharString name="Q">
          -118 -21 128 82 callsubr
          hstemhm
          107 69 121 69 0 69 15 69 hintmask 11110110
          519 305 rmoveto
          289 48 -16 28 -185 hhcurveto
          -185 -26 -27 -290 -48 hvcurveto
          -289 -48 16 -27 185 hhcurveto
          13 32 0 1 11 hvcurveto
          42 -117 rlineto
          -12 6 11 0 16 hhcurveto
          9 hlineto
          15 17 0 19 3 hvcurveto
          1 6 -14 36 -7 22 -6 13 -13 34 -4 13 47 18 24 35 22 81 15 54 11 67 8 46 rrcurveto
          -69 1 rmoveto
          -35 -209 -22 -14 -25 -15 -33 87 rcurveline
          15 -7 0 1 -20 hhcurveto
          hintmask 01111010
          -11 hlineto
          -14 -18 0 -19 -4 hvcurveto
          -5 0 -3 2 -5 vhcurveto
          31 -89 rlineto
          -32 hlineto
          -90 -15 28 54 -1 hvcurveto
          51 11 68 9 54 vhcurveto
          150 callsubr
          endchar
        </CharString>
        <CharString name="R">
          -98 callgsubr
          endchar
        </CharString>
        <CharString name="Racute">
          -98 callgsubr
          hintmask 1110000000000000
          60 329 -104 callsubr
        </CharString>
        <CharString name="Rcaron">
          -98 callgsubr
          hintmask 1110001000000000
          70 265 -80 callgsubr
        </CharString>
        <CharString name="Rcedilla">
          -98 callgsubr
          -131 -551 -103 callsubr
        </CharString>
        <CharString name="Rcommaaccent">
          -98 callgsubr
          hintmask 1110000000000000
          -131 -551 -103 callsubr
        </CharString>
        <CharString name="Rdblgrave">
          -98 callgsubr
          hintmask 1110000000000000
          71 242 rmoveto
          -85 callgsubr
          66 -70 rcurveline
          12 -13 23 1 15 15 rrcurveto
          -194 hmoveto
          -85 callgsubr
          66 -70 rcurveline
          12 -13 23 1 15 15 rrcurveto
          endchar
        </CharString>
        <CharString name="Rdotaccent">
          0 61 214 200 callgsubr
          hstemhm
          185 callgsubr
          86 100 -72 -63 callgsubr
          hintmask 1110000010000000
          92 34 -59 -48 -8 hvcurveto
          hintmask 1110010000000000
          -4 281 -34 callgsubr
          endchar
        </CharString>
        <CharString name="Rdotbelow">
          0 61 214 200 callgsubr
          hstemhm
          185 callgsubr
          -60 100 74 -63 callgsubr
          hintmask 1110000010000000
          92 34 -59 -48 -8 hvcurveto
          hintmask 1110010000000000
          -150 -593 -99 callgsubr
          endchar
        </CharString>
        <CharString name="Rdotbelowmacron">
          0 61 214 200 callgsubr
          hstemhm
          185 callgsubr
          -60 100 74 -63 callgsubr
          hintmask 1110010010000000
          92 34 -59 -48 -8 hvcurveto
          -150 -593 -99 callgsubr
          hintmask 1110000000000000
          283 864 -76 callgsubr
        </CharString>
        <CharString name="Rho">
          9 callsubr
        </CharString>
        <CharString name="S">
          43 callgsubr
          hstem
          -95 callgsubr
          -30 35 58 -16 64 hhcurveto
          116 87 88 89 15 hvcurveto
          endchar
        </CharString>
        <CharString name="Sacute">
          187 callsubr
          -95 callgsubr
          -30 35 58 -16 64 hhcurveto
          116 87 88 89 15 hvcurveto
          hintmask 00110000
          -2 606 -104 callsubr
        </CharString>
        <CharString name="Scaron">
          43 callgsubr
          hstemhm
          -95 callgsubr
          -30 35 58 -16 64 hhcurveto
          116 87 88 89 15 hvcurveto
          8 542 -80 callgsubr
        </CharString>
        <CharString name="Scedilla">
          43 callgsubr
          hstem
          118 65 83 65 vstem
          -95 callgsubr
          28 -24 43 -15 49 -5 -4 -26 rcurveline
          146 callgsubr
          118 callsubr
          -40 -6 -99 0 -38 hhcurveto
          -38 -22 -90 callgsubr
          -23 -4 14 -8 15 hhcurveto
          95 140 0 102 17 hvcurveto
          7 39 -21 44 -68 14 1 11 rcurveline
          100 15 72 79 14 81 rrcurveto
          endchar
        </CharString>
        <CharString name="Scircumflex">
          43 callgsubr
          hstemhm
          -95 callgsubr
          -30 35 58 -16 64 hhcurveto
          116 87 88 89 15 hvcurveto
          11 555 -97 callsubr
          endchar
        </CharString>
        <CharString name="Sdotbelow">
          140 callgsubr
          -95 callgsubr
          -30 35 58 -16 64 hhcurveto
          116 87 88 89 15 hvcurveto
          hintmask 10010000
          -212 -316 -99 callgsubr
          endchar
        </CharString>
        <CharString name="Sigma">
          0 63 487 61 hstemhm
          434 69 -5 69 hintmask 11100000
          491 41 rmoveto
          12 75 rlineto
          19 4 3 22 -34 hhcurveto
          -35 -3 -21 -20 -4 hvcurveto
          -8 -53 rlineto
          -279 hlineto
          163 220 12 15 0 2 2 12 rlinecurve
          -100 238 rlineto
          283 hlineto
          hintmask 11010000
          -9 -53 -52 callsubr
          4 21 20 3 117 callgsubr
          -363 hlineto
          -16 -25 -90 callgsubr
          -1 -5 -1 -6 6 -13 107 -251 rcurveline
          -191 -255 -11 -14 0 -2 -1 -6 rlinecurve
          -28 -5 28 0 13 hhcurveto
          363 164 callsubr
        </CharString>
        <CharString name="T">
          81 callsubr
          109 69 -9 69 0 69 13 69 123 69 hintmask 01010000
          -15 callsubr
          hintmask 11101110
          -84 callsubr
          endchar
        </CharString>
        <CharString name="T_uni0303">
          2 callgsubr
          52 149 callgsubr
          109 69 -9 69 0 69 13 69 123 69 hintmask 0100010000000000
          -15 callsubr
          hintmask 1100101110000000
          -84 callsubr
          hintmask 0001000010000000
          -18 254 -54 callsubr
          hintmask 0010000000000000
          -56 callgsubr
          hintmask 0001000000000000
          -77 callgsubr
          hintmask 0010000000000000
          -48 callsubr
          hintmask 0001000000000000
          -58 callsubr
          hintmask 0010000000000000
          -86 callsubr
        </CharString>
        <CharString name="T_uni0308">
          2 callgsubr
          52 90 hstemhm
          109 69 -9 69 0 69 -69 90 -8 69 44 90 -11 69 hintmask 0100100000000000
          -15 callsubr
          hintmask 1101010101000000
          -84 callsubr
          hintmask 0010100000000000
          -253 211 74 callgsubr
          hintmask 0010001010000000
          55 callsubr
        </CharString>
        <CharString name="Tau">
          81 callsubr
          109 69 -9 69 0 69 13 69 123 69 hintmask 01010000
          -15 callsubr
          hintmask 11101110
          -84 callsubr
          endchar
        </CharString>
        <CharString name="Tcaron">
          81 callsubr
          109 69 -9 69 0 69 13 69 123 69 hintmask 01010000
          -15 callsubr
          hintmask 11101110
          -84 callsubr
          hintmask 00000000
          -73 211 -80 callgsubr
        </CharString>
        <CharString name="Tcedilla">
          -211 62 149 54 callgsubr
          hstemhm
          109 69 -9 69 0 69 1 69 -57 69 123 69 hintmask 0010100000000000
          -15 callsubr
          hintmask 0111010100000000
          -12 -73 -52 callsubr
          4 21 20 3 hvcurveto
          9 53 rlineto
          133 53 callsubr
          -52 -95 callsubr
          52 hlineto
          -5 -27 146 callgsubr
          rlinecurve
          hintmask 1100011000000000
          -4 callsubr
          160 callsubr
          2 12 rcurveline
          53 4 callgsubr
          -24 0 -16 hhcurveto
          -52 hlineto
          hintmask 0010000110000000
          69 callgsubr
          132 hlineto
          -9 -53 -52 callsubr
          4 21 20 3 hvcurveto
          endchar
        </CharString>
        <CharString name="Tdotbelow">
          99 callgsubr
          hstemhm
          109 69 -9 69 -50 100 -50 69 13 69 123 69 hintmask 0010100000000000
          -15 callsubr
          hintmask 0111001110000000
          -84 callsubr
          hintmask 1000010000000000
          -293 -647 -99 callgsubr
          endchar
        </CharString>
        <CharString name="Theta">
          -11 61 222 67 222 61 hstem
          107 69 274 69 cntrmask 11100000
          519 305 rmoveto
          289 48 -16 28 -185 hhcurveto
          -185 -26 -27 -290 -48 hvcurveto
          -289 -48 16 -27 185 179 callgsubr
          -69 1 rmoveto
          -9 -56 -13 -77 -18 -48 rrcurveto
          -55 -22 -26 -20 -92 hhcurveto
          -89 -25 17 65 51 11 68 9 54 hvcurveto
          150 callsubr
          -43 -24 rmoveto
          8 47 rlineto
          20 3 4 21 -35 hhcurveto
          -11 -21 0 -31 -7 hvcurveto
          -58 hlineto
          30 3 -20 1 -12 120 callgsubr
          -8 -47 rlineto
          -20 -3 -4 -21 35 hhcurveto
          11 21 0 31 7 hvcurveto
          58 hlineto
          -30 -3 20 -1 12 119 callgsubr
          endchar
        </CharString>
        <CharString name="Thorn">
          0 61 98 187 callgsubr
          43 61 hstem
          532 333 rmoveto
          86 14 -54 88 -113 hhcurveto
          -116 hlineto
          7 43 rlineto
          36 26 callgsubr
          -142 hlineto
          -15 41 callgsubr
          36 53 callsubr
          -36 hlineto
          -15 41 callgsubr
          142 26 callgsubr
          -36 hlineto
          17 98 rlineto
          117 hlineto
          110 85 86 88 15 hvcurveto
          -70 hmoveto
          -51 -9 -55 -62 -91 hhcurveto
          -92 hlineto
          37 226 rlineto
          102 hlineto
          88 28 -64 -49 -8 hvcurveto
          endchar
        </CharString>
        <CharString name="Tlinebelow">
          224 callsubr
          109 69 -9 69 0 69 13 69 123 69 hintmask 00101000
          -15 callsubr
          hintmask 01110111
          -84 callsubr
          hintmask 10000000
          -154 -647 -76 callgsubr
        </CharString>
        <CharString name="U">
          111 callgsubr
          hstem
          167 69 236 69 vstem
          -106 callgsubr
          endchar
        </CharString>
        <CharString name="U_uni032F">
          -185 -21 49 64 82 123 callgsubr
          86 callgsubr
          hintmask 00111100
          -106 callgsubr
          hintmask 11000000
          -207 -756 -2 callsubr
        </CharString>
        <CharString name="Uacute">
          111 callgsubr
          83 -21 134 -20 86 callgsubr
          hintmask 11001100
          -106 callgsubr
          hintmask 00110000
          -119 191 -104 callsubr
        </CharString>
        <CharString name="Ubreve">
          111 callgsubr
          62 64 49 -20 86 callgsubr
          hintmask 11001100
          -106 callgsubr
          hintmask 00110000
          -52 174 -105 callsubr
          endchar
        </CharString>
        <CharString name="Ucaron">
          111 callgsubr
          86 callgsubr
          vstemhm
          -106 callgsubr
          -109 127 -80 callgsubr
        </CharString>
        <CharString name="Ucircumflex">
          111 callgsubr
          86 callgsubr
          vstemhm
          -106 callgsubr
          -106 140 -97 callsubr
          endchar
        </CharString>
        <CharString name="Udblgrave">
          111 callgsubr
          86 callgsubr
          vstemhm
          -106 callgsubr
          -79 104 rmoveto
          -85 callgsubr
          66 -70 rcurveline
          12 -13 23 1 15 15 rrcurveto
          -194 hmoveto
          -85 callgsubr
          66 -70 rcurveline
          12 -13 23 1 15 15 rrcurveto
          endchar
        </CharString>
        <CharString name="Udieresis">
          111 callgsubr
          52 90 145 callsubr
          hintmask 11010010
          -106 callgsubr
          hintmask 00101100
          15 callgsubr
          endchar
        </CharString>
        <CharString name="Udieresisacute">
          111 callgsubr
          52 90 82 -21 134 -20 145 callsubr
          hintmask 1100010010000000
          -106 callgsubr
          hintmask 0011101100000000
          15 callgsubr
          -1 205 -104 callsubr
        </CharString>
        <CharString name="Udieresiscaron">
          111 callgsubr
          52 90 145 callsubr
          hintmask 11010010
          -106 callgsubr
          hintmask 00101100
          15 callgsubr
          9 141 -80 callgsubr
        </CharString>
        <CharString name="Udieresisgrave">
          111 callgsubr
          52 90 82 -21 134 -20 145 callsubr
          hintmask 1100010010000000
          -106 callgsubr
          hintmask 0011101100000000
          15 callgsubr
          -12 146 -84 callgsubr
        </CharString>
        <CharString name="Udotbelow">
          -200 100 89 123 callgsubr
          hstemhm
          167 69 -48 100 184 69 hintmask 01110100
          -106 callgsubr
          hintmask 10001000
          -329 -731 -99 callgsubr
          endchar
        </CharString>
        <CharString name="Ugrave">
          111 callgsubr
          83 -21 134 -20 86 callgsubr
          hintmask 11001100
          -106 callgsubr
          hintmask 00110000
          -130 132 -84 callgsubr
        </CharString>
        <CharString name="Uhookabove">
          111 callgsubr
          84 -21 199 -20 86 callgsubr
          hintmask 11001100
          -106 callgsubr
          hintmask 00110100
          -118 220 -99 callsubr
        </CharString>
        <CharString name="Uhorn">
          111 callgsubr
          -28 61 67 -20 131 callgsubr
          hintmask 01010000
          -19 callgsubr
          hintmask 00100000
          52 callsubr
          hintmask 01000010
          68 callgsubr
          hintmask 00000001
          -58 -346 rlineto
          hintmask 10001010
          10 callsubr
          hintmask 01000100
          58 346 rlineto
          42 hlineto
          16 14 12 16 2 hvcurveto
          hintmask 00100000
          1 5 rlineto
          hintmask 01000000
          15 3 -10 13 -16 hhcurveto
          -154 hlineto
          hintmask 00100000
          52 callsubr
          hintmask 01000100
          68 callgsubr
          hintmask 10101001
          -20 callgsubr
          endchar
        </CharString>
        <CharString name="Uhornacute">
          111 callgsubr
          -28 61 50 -21 38 -20 116 -73 callgsubr
          -163 128 -104 callsubr
        </CharString>
        <CharString name="Uhorndotbelow">
          -200 100 89 123 callgsubr
          -28 61 67 -20 183 callgsubr
          -48 100 71 70 -16 70 hintmask 0010100000000000
          -19 callgsubr
          hintmask 0001000000000000
          52 callsubr
          hintmask 0010000010000000
          68 callgsubr
          hintmask 0000000001000000
          -58 -346 rlineto
          hintmask 0100010010000000
          10 callsubr
          hintmask 0010001000000000
          58 346 rlineto
          42 hlineto
          16 14 12 16 2 hvcurveto
          hintmask 0001000000000000
          1 5 rlineto
          hintmask 0010000100000000
          15 3 -10 13 -16 hhcurveto
          -154 225 callsubr
          52 callsubr
          hintmask 0010001000000000
          68 callgsubr
          hintmask 0101010001000000
          -20 callgsubr
          hintmask 1000000100000000
          -344 -794 -99 callgsubr
          endchar
        </CharString>
        <CharString name="Uhorngrave">
          111 callgsubr
          -28 61 50 -21 38 -20 116 -73 callgsubr
          -174 69 -84 callgsubr
        </CharString>
        <CharString name="Uhornhookabove">
          111 callgsubr
          -28 61 51 -21 37 -20 182 -73 callgsubr
          -133 157 -99 callsubr
        </CharString>
        <CharString name="Uhorntilde">
          111 callgsubr
          -28 61 19 65 -10 65 131 callgsubr
          hintmask 0100000000000000
          1 callgsubr
          hintmask 0100000100000000
          68 callgsubr
          hintmask 0000000010000000
          -58 -346 rlineto
          hintmask 1000010100000000
          10 callsubr
          hintmask 0100001000000000
          58 346 rlineto
          42 hlineto
          16 14 12 16 2 211 callgsubr
          1 5 rlineto
          hintmask 0100000000000000
          15 3 -10 13 -16 hhcurveto
          -154 108 callsubr
          hintmask 0100001000000000
          68 callgsubr
          hintmask 1010010010000000
          -20 callgsubr
          hintmask 0000100010000000
          -98 107 -54 callsubr
          hintmask 0001000000000000
          -56 callgsubr
          hintmask 0000100000000000
          -51 callsubr
        </CharString>
        <CharString name="Uhungarumlaut">
          111 callgsubr
          86 callgsubr
          vstemhm
          -106 callgsubr
          -253 220 rmoveto
          0 callgsubr
          194 hmoveto
          0 callgsubr
          endchar
        </CharString>
        <CharString name="Umacron">
          111 callgsubr
          72 63 86 callgsubr
          hintmask 11011000
          -106 callgsubr
          hintmask 00100000
          -46 133 -76 callgsubr
        </CharString>
        <CharString name="Uogonek">
          -183 49 123 123 callgsubr
          hstem
          167 69 236 69 vstem
          617 159 callsubr
          -129 hlineto
          -15 -26 -83 callsubr
          26 -23 callgsubr
          30 hlineto
          -57 -341 rlineto
          -107 -18 -75 -52 -52 hhcurveto
          -53 -56 52 107 18 hvcurveto
          57 341 rlineto
          30 hlineto
          15 220 callsubr
          30 5 -26 -11 callgsubr
          -129 hlineto
          -15 -26 -83 callsubr
          26 -23 callgsubr
          30 hlineto
          -58 -346 -18 -110 55 -85 83 -17 rlinecurve
          -26 -24 -19 -31 -5 -34 rrcurveto
          -67 callsubr
          6 36 22 33 31 22 89 15 86 86 18 111 58 346 rcurveline
          30 hlineto
          16 62 callgsubr
          endchar
        </CharString>
        <CharString name="Upsilon">
          0 61 509 52 hstemhm
          120 69 49 69 -20 69 143 69 hintmask 01101000
          568 493 rmoveto
          57 10 -30 72 -73 hhcurveto
          -59 -45 -44 -98 -28 hvcurveto
          -1 hlineto
          105 4 -34 37 -55 hhcurveto
          -72 -55 -71 -58 -10 hvcurveto
          -32 -5 25 0 9 hhcurveto
          11 23 0 31 6 hvcurveto
          38 7 17 40 36 hhcurveto
          74 -27 -162 -52 -9 hvcurveto
          hintmask 10010000
          -49 -295 rlineto
          -35 hlineto
          -16 -31 callsubr
          26 -23 callgsubr
          139 26 callgsubr
          -35 hlineto
          hintmask 01001100
          49 295 rlineto
          53 9 27 161 73 hhcurveto
          37 2 -43 -33 -5 hvcurveto
          -33 -4 21 0 13 hhcurveto
          9 25 0 32 5 hvcurveto
          endchar
        </CharString>
        <CharString name="Uring">
          111 callgsubr
          12 38 68 38 hstemhm
          167 69 46 50 94 50 -4 69 hintmask 11001001
          -106 callgsubr
          hintmask 00110110
          -191 114 rmoveto
          -19 -3 -27 -15 -23 hhcurveto
          -23 -21 15 226 callsubr
          3 26 15 23 hhcurveto
          23 22 -15 -19 36 callsubr
        </CharString>
        <CharString name="Utilde">
          111 callgsubr
          52 65 -10 65 86 callgsubr
          hintmask 11001100
          -106 callgsubr
          hintmask 00010000
          -54 170 -97 callgsubr
        </CharString>
        <CharString name="V">
          219 callsubr
          hstem
          603 581 rmoveto
          170 callsubr
          35 hhcurveto
          -195 -479 rlineto
          -2 hlineto
          -35 479 rlineto
          35 21 0 31 5 hvcurveto
          170 callsubr
          36 hhcurveto
          45 -518 rlineto
          -35 3 7 -5 39 hhcurveto
          32 13 1 38 16 hvcurveto
          219 519 rlineto
          36 21 -33 callsubr
          endchar
        </CharString>
        <CharString name="W">
          219 callsubr
          hstem
          -90 callsubr
          endchar
        </CharString>
        <CharString name="Wacute">
          219 callsubr
          83 137 callgsubr
          hintmask 11000000
          -90 callsubr
          hintmask 00110000
          -112 192 -104 callsubr
        </CharString>
        <CharString name="Wcircumflex">
          219 callsubr
          hstemhm
          -90 callsubr
          -99 141 -97 callsubr
          endchar
        </CharString>
        <CharString name="Wdieresis">
          219 callsubr
          52 90 hstemhm
          238 90 105 90 hintmask 11000000
          -90 callsubr
          hintmask 00111000
          -282 128 -86 callgsubr
          endchar
        </CharString>
        <CharString name="Wgrave">
          219 callsubr
          83 137 callgsubr
          hintmask 11000000
          -90 callsubr
          hintmask 00110000
          -123 133 -84 callgsubr
        </CharString>
        <CharString name="X">
          -7 callsubr
        </CharString>
        <CharString name="Xi">
          0 59 47 -20 202 59 184 -21 42 59 hstem
          129 69 312 69 vstem
          579 551 rmoveto
          3 19 rlineto
          31 5 -4 10 -34 hhcurveto
          -369 hlineto
          -33 -9 -8 -33 -6 hvcurveto
          -3 -19 -52 callsubr
          3 20 22 4 hvcurveto
          312 hlineto
          135 callgsubr
          34 4 22 19 3 hvcurveto
          -81 -510 rmoveto
          4 24 81 callgsubr
          -19 -28 -5 hvcurveto
          -320 hlineto
          28 5 3 19 -35 hhcurveto
          -34 -4 -22 -19 -3 hvcurveto
          -4 -24 rlineto
          -33 -6 7 -8 33 hhcurveto
          377 hlineto
          33 9 9 32 5 hvcurveto
          -34 252 rmoveto
          8 49 rlineto
          20 3 4 20 -35 hhcurveto
          -24 -12 -10 -25 -4 hvcurveto
          -168 hlineto
          25 4 -8 10 -24 hhcurveto
          -35 -4 -20 -20 -3 hvcurveto
          -8 -49 rlineto
          -20 -3 -4 -20 35 hhcurveto
          24 12 10 25 4 hvcurveto
          168 hlineto
          -25 -4 8 -10 24 hhcurveto
          35 4 20 20 3 hvcurveto
          endchar
        </CharString>
        <CharString name="Y">
          0 61 489 61 208 callgsubr
          hintmask 01010000
          -79 callsubr
          hintmask 10100000
          -31 -183 -59 callgsubr
          119 4 callgsubr
          -24 0 -16 hhcurveto
          -25 hlineto
          hintmask 01010000
          31 183 198 306 rlineto
          21 -56 callsubr
          endchar
        </CharString>
        <CharString name="Yacute">
          5 callgsubr
          hintmask 00110000
          -104 192 -104 callsubr
        </CharString>
        <CharString name="Ycircumflex">
          0 61 489 61 208 callgsubr
          hintmask 01010000
          -79 callsubr
          hintmask 10100000
          -31 -183 -59 callgsubr
          119 4 callgsubr
          -24 0 -16 hhcurveto
          -25 hlineto
          hintmask 01010000
          31 183 198 306 rlineto
          21 -56 callsubr
          hintmask 00000000
          -91 141 -97 callsubr
          endchar
        </CharString>
        <CharString name="Ydieresis">
          2 callgsubr
          52 90 hstemhm
          238 69 -69 90 -59 69 95 90 hintmask 01000100
          -79 callsubr
          hintmask 10010000
          -31 -183 -59 callgsubr
          119 4 callgsubr
          -24 0 -16 hhcurveto
          -25 hlineto
          hintmask 01000100
          31 183 198 306 rlineto
          21 -56 callsubr
          hintmask 00110000
          -274 128 74 callgsubr
          hintmask 00101010
          55 callsubr
        </CharString>
        <CharString name="Ydotbelow">
          99 callgsubr
          hstemhm
          188 100 -50 69 -38 69 hintmask 00100100
          -79 callsubr
          hintmask 01001000
          -31 -183 -59 callgsubr
          119 4 callgsubr
          -24 0 -16 hhcurveto
          -25 hlineto
          hintmask 00100100
          31 183 198 306 rlineto
          21 -56 callsubr
          hintmask 10010000
          -314 -730 -99 callgsubr
          endchar
        </CharString>
        <CharString name="Ygrave">
          5 callgsubr
          hintmask 00111000
          -115 133 -84 callgsubr
        </CharString>
        <CharString name="Yhookabove">
          2 callgsubr
          84 -21 199 6 callsubr
          hintmask 00110000
          -103 221 -99 callsubr
        </CharString>
        <CharString name="Ytilde">
          2 callgsubr
          52 65 -10 65 -46 callsubr
          hintmask 00010000
          -39 171 -97 callgsubr
        </CharString>
        <CharString name="Z">
          -39 callgsubr
          endchar
        </CharString>
        <CharString name="Zacute">
          2 callgsubr
          83 137 callgsubr
          143 69 222 196 callsubr
          hintmask 10000100
          13 callgsubr
          hintmask 00000010
          410 485 rlineto
          hintmask 11001001
          -55 callsubr
          hintmask 00000010
          33 9 9 32 5 hvcurveto
          hintmask 00110000
          10 731 -104 callsubr
        </CharString>
        <CharString name="Zcaron">
          -39 callgsubr
          hintmask 00000000
          20 667 -80 callgsubr
        </CharString>
        <CharString name="Zdotaccent">
          2 callgsubr
          63 100 hstemhm
          143 69 122 100 0 196 callsubr
          hintmask 10000100
          13 callgsubr
          hintmask 00000010
          410 485 rlineto
          hintmask 11010001
          -55 callsubr
          hintmask 00000010
          33 9 9 32 5 hvcurveto
          hintmask 00101000
          -54 683 -34 callgsubr
          endchar
        </CharString>
        <CharString name="Zdotbelow">
          99 callgsubr
          hstemhm
          143 69 -24 100 146 196 callsubr
          hintmask 01000100
          13 callgsubr
          hintmask 00000010
          410 485 rlineto
          hintmask 01110001
          -55 callsubr
          hintmask 00000010
          33 9 9 32 5 hvcurveto
          hintmask 10001000
          -200 -191 -99 callgsubr
          endchar
        </CharString>
        <CharString name="Zeta">
          -39 callgsubr
          endchar
        </CharString>
        <CharString name="a">
          35 callsubr
          hstem
          -107 callsubr
          endchar
        </CharString>
        <CharString name="aacute">
          35 callsubr
          95 -21 134 -57 callsubr
          146 232 -104 callgsubr
        </CharString>
        <CharString name="abreve">
          160 callgsubr
          49 -57 callsubr
          -28 callsubr
          endchar
        </CharString>
        <CharString name="abreveacute">
          160 callgsubr
          69 64 -59 64 65 -88 callsubr
          hintmask 00010110
          -28 callsubr
          -45 150 rmoveto
          20 3 -12 -87 callgsubr
          hintmask 00001000
          -8 -1 1 -32 26 hhcurveto
          hintmask 00000100
          210 callsubr
          hintmask 00001000
          143 59 26 11 6 13 2 11 rlinecurve
          endchar
        </CharString>
        <CharString name="abrevedotbelow">
          128 callgsubr
          47 137 callsubr
          85 64 49 -20 211 callsubr
          hintmask 01111100
          -107 callsubr
          -28 callsubr
          hintmask 10000010
          -256 -778 -99 callgsubr
          endchar
        </CharString>
        <CharString name="abrevegrave">
          0 61 47 61 312 -20 85 224 callgsubr
          -107 callsubr
          hintmask 00011100
          -28 callsubr
          -55 91 118 callgsubr
          hintmask 00000010
          147 callsubr
          hintmask 00000100
          3 callgsubr
          hintmask 00000010
          28 callgsubr
        </CharString>
        <CharString name="abrevehookabove">
          160 callgsubr
          248 -57 callsubr
          -28 callsubr
          -48 158 -101 callsubr
        </CharString>
        <CharString name="abrevetilde">
          160 callgsubr
          89 149 callgsubr
          hintmask 11100000
          -107 callsubr
          hintmask 00010100
          -28 callsubr
          25 159 45 callgsubr
          hintmask 00001000
          -56 callgsubr
          hintmask 00000100
          -16 callgsubr
          hintmask 00001000
          93 callgsubr
          hintmask 00000100
          -58 callsubr
          hintmask 00001000
          0 callsubr
        </CharString>
        <CharString name="acaron">
          35 callsubr
          hstemhm
          -107 callsubr
          170 212 -73 callsubr
        </CharString>
        <CharString name="acircumflex">
          35 callsubr
          hstemhm
          -107 callsubr
          166 187 -82 callsubr
          endchar
        </CharString>
        <CharString name="acircumflexacute">
          35 callsubr
          329 -88 callsubr
          hintmask 00010000
          161 190 33 callsubr
        </CharString>
        <CharString name="acircumflexdotbelow">
          128 callgsubr
          47 137 callsubr
          211 callsubr
          hintmask 01110000
          -107 callsubr
          166 187 -82 callsubr
          hintmask 10001000
          -207 -739 -99 callgsubr
          endchar
        </CharString>
        <CharString name="acircumflexgrave">
          35 callsubr
          hstemhm
          -107 callsubr
          161 190 36 callgsubr
        </CharString>
        <CharString name="acircumflexhookabove">
          35 callsubr
          374 -88 callsubr
          hintmask 00010000
          161 190 -65 callgsubr
        </CharString>
        <CharString name="acircumflextilde">
          35 callsubr
          215 149 callgsubr
          hintmask 11100000
          -107 callsubr
          hintmask 00001000
          161 190 77 callsubr
          hintmask 00010000
          157 callsubr
          hintmask 00001000
          -16 callgsubr
          hintmask 00010000
          158 callgsubr
          hintmask 00001000
          156 callgsubr
          hintmask 00010000
          0 callsubr
        </CharString>
        <CharString name="acute">
          514 102 callgsubr
          hstem
          468 592 -104 callgsubr
        </CharString>
        <CharString name="acute.cap">
          513 102 callgsubr
          hstem
          468 591 -104 callsubr
        </CharString>
        <CharString name="acute.dup">
          514 102 callgsubr
          hstem
          468 592 -104 callgsubr
        </CharString>
        <CharString name="acute.ts1">
          499 -21 133 -20 21 -20 hstemhm
          hintmask 00100000
          504 576 rmoveto
          18 3 -12 18 -20 hhcurveto
          hintmask 11000000
          -6 -1 -13 -2 -15 -8 -13 -5 rlinecurve
          -45 -18 -97 -26 -5 -33 rrcurveto
          -22 -4 12 -19 22 hhcurveto
          16 2 19 10 16 7 86 35 rcurveline
          22 10 29 6 5 28 rrcurveto
          endchar
        </CharString>
        <CharString name="adblgrave">
          35 callsubr
          hstemhm
          -107 callsubr
          163 142 rmoveto
          -85 callgsubr
          65 -70 rcurveline
          13 -13 22 1 16 15 rrcurveto
          -194 hmoveto
          -85 callgsubr
          65 -70 rcurveline
          13 -13 22 1 16 15 rrcurveto
          endchar
        </CharString>
        <CharString name="adieresis">
          35 callsubr
          96 90 hstemhm
          235 90 75 90 hintmask 11100100
          -107 callsubr
          hintmask 00011100
          -4 200 -72 callsubr
        </CharString>
        <CharString name="adotbelow">
          128 callgsubr
          47 137 callsubr
          211 callsubr
          hintmask 01110000
          -107 callsubr
          hintmask 10001000
          -41 -552 -99 callgsubr
          endchar
        </CharString>
        <CharString name="ae">
          -78 callsubr
          endchar
        </CharString>
        <CharString name="ae.dup">
          -78 callsubr
          endchar
        </CharString>
        <CharString name="aeacute">
          -78 callsubr
          hintmask 1110000000000000
          143 223 -104 callgsubr
        </CharString>
        <CharString name="agrave">
          35 callsubr
          95 -21 134 -57 callsubr
          135 173 -79 callgsubr
        </CharString>
        <CharString name="ahookabove">
          35 callsubr
          63 -21 199 -57 callsubr
          141 228 -101 callsubr
        </CharString>
        <CharString name="amacron">
          35 callsubr
          110 63 hstemhm
          hintmask 11100000
          -107 callsubr
          hintmask 00010000
          223 200 -49 callsubr
        </CharString>
        <CharString name="ampersand">
          -11 61 320 61 130 61 hstem
          324 56 0 69 0 56 cntrmask 00011100
          557 400 -12 callsubr
          -92 132 callsubr
          24 0 17 hhcurveto
          -39 -71 -47 -86 -36 -53 -10 21 -30 63 -11 54 118 105 10 59 4 23 rrcurveto
          61 10 -8 76 -71 hhcurveto
          -50 -62 -45 -100 -16 hvcurveto
          -8 -43 -2 -56 11 -63 -10 -8 -68 -64 -3 -1 -23 -24 -21 -35 -8 -46 rrcurveto
          -76 -13 35 -72 76 hhcurveto
          52 47 32 38 37 hvcurveto
          -19 13 34 -51 58 hhcurveto
          66 41 68 48 8 hvcurveto
          5 33 -28 0 0 vvcurveto
          -26 -6 -26 -5 -1 hvcurveto
          -44 -11 -22 -13 -16 hhcurveto
          -37 -30 46 12 -7 hvcurveto
          27 35 28 46 14 25 86 156 rcurveline
          31 -56 callsubr
          -233 85 rmoveto
          -5 -29 -24 -36 -59 -56 -7 52 8 53 2 8 rrcurveto
          58 9 31 26 22 hhcurveto
          34 -10 -67 -9 -1 hvcurveto
          -67 -377 rmoveto
          -53 -46 -37 -5 -14 hhcurveto
          -45 1 63 27 4 hvcurveto
          8 48 13 12 56 52 4 -16 14 -33 10 -23 16 -39 3 -9 13 -24 rrcurveto
          endchar
        </CharString>
        <CharString name="anglearc">
          102 -21 450 -20 hstemhm
          358 70 -31 70 hintmask 01010000
          505 116 rmoveto
          3 14 -6 12 -10 5 -68 37 rcurveline
          21 39 15 41 7 42 7 42 -1 41 -9 39 81 37 rcurveline
          11 5 10 12 3 14 rrcurveto
          209 callgsubr
          -6 -6 -1 -3 -5 hvcurveto
          -79 -37 rlineto
          hintmask 11100000
          -5 10 -5 9 -6 9 rrcurveto
          8 -4 -9 5 -11 hhcurveto
          207 callgsubr
          -2 -8 2 -8 3 -6 10 -15 rcurveline
          -263 -122 -12 -5 -10 -12 -2 -14 rlinecurve
          -2 -14 6 -12 10 -5 222 -122 rcurveline
          -15 -15 -5 -6 -4 -8 -2 -8 rlinecurve
          207 callsubr
          11 10 5 8 8 hvcurveto
          8 9 9 9 7 10 67 -37 rcurveline
          -3 5 5 -1 6 hhcurveto
          19 18 16 19 3 hvcurveto
          -108 190 rmoveto
          -5 -31 -10 -30 -16 -29 -164 90 rcurveline
          194 90 rlineto
          hintmask 00010000
          6 -29 0 -30 -5 -31 rrcurveto
          endchar
        </CharString>
        <CharString name="angleleft">
          197 callsubr
          21 -20 hstemhm
          hintmask 00100000
          441 -47 rmoveto
          4 21 -19 22 -8 19 -132 273 rcurveline
          -3 5 -5 7 1 6 2 11 41 44 22 27 67 81 63 83 69 80 7 9 7 8 2 11 rrcurveto
          19 3 -12 16 -19 hhcurveto
          hintmask 11000000
          -7 -1 -26 -3 -33 -51 -22 -28 rlinecurve
          -181 -222 -22 -27 -36 -34 -4 -24 rlinecurve
          -1 -3 -1 -19 18 -23 8 -19 rlinecurve
          138 -285 rlineto
          -17 9 5 -22 24 hhcurveto
          19 19 18 18 3 hvcurveto
          endchar
        </CharString>
        <CharString name="angleright">
          197 callsubr
          21 -20 hstemhm
          hintmask 00100000
          426 307 rmoveto
          1 3 1 20 -20 25 -8 20 rlinecurve
          -74 152 -63 131 rlineto
          16 -9 -6 21 -21 hhcurveto
          hintmask 11000000
          -7 -1 -18 -2 -14 -16 -3 -16 rlinecurve
          -3 -18 12 -14 6 -14 138 -285 rcurveline
          3 -6 6 -9 -7 vvcurveto
          -2 -13 -39 -41 -20 -24 -173 -213 rcurveline
          -18 -20 -25 -25 -3 -19 rrcurveto
          124 callsubr
          19 12 14 15 12 hvcurveto
          41 51 228 278 9 10 7 9 2 13 rlinecurve
          endchar
        </CharString>
        <CharString name="aogonek">
          -183 49 134 61 -61 62 46 61 312 -9 callsubr
          endchar
        </CharString>
        <CharString name="aogonekacute">
          -183 49 134 61 -61 62 46 137 callsubr
          95 -21 134 -9 callsubr
          hintmask 00000110
          146 232 -104 callgsubr
        </CharString>
        <CharString name="aring">
          35 callsubr
          73 38 68 38 hstemhm
          267 50 94 50 hintmask 11100000
          -107 callsubr
          hintmask 00011110
          82 204 -4 callgsubr
        </CharString>
        <CharString name="aringacute">
          35 callsubr
          73 210 callgsubr
          hstemhm
          267 50 94 50 hintmask 11100000
          -107 callsubr
          hintmask 00011111
          82 204 19 callsubr
        </CharString>
        <CharString name="asciicircum">
          532 568 rmoveto
          -150 79 -7 3 -9 0 -7 -3 rlinecurve
          -176 -79 -38 -17 15 -52 37 15 rlinecurve
          162 65 140 -65 32 -15 33 52 -32 17 rlinecurve
          endchar
        </CharString>
        <CharString name="asciitilde">
          494 334 29 callgsubr
        </CharString>
        <CharString name="asciitilde.low">
          453 88 29 callgsubr
        </CharString>
        <CharString name="asterisk">
          111 -21 431 -20 hstemhm
          251 66 -8 66 hintmask 01010000
          492 214 rmoveto
          3 17 -11 9 -2 1 -22 17 -62 33 -24 14 118 59 rcurveline
          13 7 14 7 3 19 rrcurveto
          4 1 5 29 -40 hhcurveto
          -136 -72 6 26 12 66 5 29 rlinecurve
          9 1 6 33 -33 hhcurveto
          -33 -6 -33 -9 -1 hvcurveto
          -5 -29 -10 -66 -2 -26 -98 63 rcurveline
          9 -12 -2 0 -7 hhcurveto
          -20 -16 -18 -15 -3 hvcurveto
          -3 -19 10 -6 12 -7 99 -59 rcurveline
          -118 -59 -13 -7 -14 -6 -3 -20 rlinecurve
          -4 -1 -5 -29 40 hhcurveto
          136 72 rlineto
          hintmask 10100000
          -6 -26 -12 -66 -5 -29 rrcurveto
          -9 -1 -6 -33 33 hhcurveto
          33 6 33 9 1 hvcurveto
          5 29 10 66 2 26 56 -34 -34 20 63 -42 rrcurveto
          -16 24 2 0 8 hhcurveto
          20 16 18 15 3 hvcurveto
          endchar
        </CharString>
        <CharString name="asterisk.math">
          113 -21 430 -20 hstemhm
          209 64 36 64 -20 64 40 64 hintmask 00001100
          491 217 rmoveto
          3 17 -11 11 -15 7 -24 15 rcurveline
          -22 13 -22 16 -24 10 rrcurveto
          2 vlineto
          28 10 27 16 26 13 29 15 rcurveline
          18 7 14 11 3 17 rrcurveto
          16 3 -10 19 -20 hhcurveto
          -14 -14 -10 -7 -13 hvcurveto
          -33 -19 -34 -17 -33 -19 rrcurveto
          hintmask 11110000
          6 36 8 37 6 36 3 15 rcurveline
          17 3 -5 21 -25 hhcurveto
          -19 -16 -13 -22 -4 hvcurveto
          -1 -10 -3 -13 -2 -13 -1 -13 rlinecurve
          -5 -33 -3 -15 -1 -15 -3 -15 rlinecurve
          -27 19 -28 17 -27 19 rrcurveto
          7 -11 -10 10 -14 hhcurveto
          -20 -16 -19 -16 -3 hvcurveto
          -3 -17 12 -11 14 -7 25 -15 rcurveline
          22 -13 21 -16 24 -10 rrcurveto
          -2 vlineto
          -28 -10 -26 -16 -26 -13 -30 -15 rcurveline
          -17 -7 -15 -11 -3 -17 rrcurveto
          -16 -2 9 -19 20 hhcurveto
          14 14 10 7 13 hvcurveto
          33 19 34 17 33 19 -2 -15 -4 -15 -2 -15 -6 -33 rcurveline
          -3 -13 -2 -13 -2 -13 -2 -10 rcurveline
          -22 -3 11 -13 19 hhcurveto
          25 12 21 17 3 hvcurveto
          2 15 6 36 4 37 6 36 rlinecurve
          hintmask 00001000
          27 -19 28 -17 27 -19 rrcurveto
          -7 11 10 -10 14 hhcurveto
          20 17 19 16 2 hvcurveto
          endchar
        </CharString>
        <CharString name="at">
          -6 61 51 61 277 61 51 61 hstemhm
          95 56 91 56 55 56 -45 56 hintmask 10111101
          493 80 rmoveto
          28 5 -28 0 -10 hhcurveto
          -17 -3 0 -10 -12 hvcurveto
          -32 -40 -40 -11 -34 hhcurveto
          -108 -79 108 142 24 hvcurveto
          149 25 118 102 103 hhcurveto
          28 43 -10 -61 13 hvcurveto
          2 -3 -25 18 -33 hhcurveto
          -80 -79 -86 -113 -19 hvcurveto
          hintmask 11011010
          -119 -20 57 -81 74 hhcurveto
          49 103 42 173 29 hvcurveto
          65 10 39 231 -176 hhcurveto
          -136 -146 -131 -180 -30 hvcurveto
          -179 -30 100 -133 140 hhcurveto
          90 94 57 29 4 hvcurveto
          -18 225 rmoveto
          hintmask 01000101
          -81 -14 -54 -57 -43 hhcurveto
          -47 -32 60 78 13 hvcurveto
          hintmask 00100010
          84 14 55 55 42 hhcurveto
          45 34 -58 -81 -13 hvcurveto
          endchar
        </CharString>
        <CharString name="atilde">
          35 callsubr
          81 149 callgsubr
          hintmask 11100000
          -107 callsubr
          hintmask 00001000
          214 228 -54 callsubr
          hintmask 00010000
          -56 callgsubr
          hintmask 00001000
          -77 callgsubr
          hintmask 00010000
          -48 callsubr
          hintmask 00001000
          -58 callsubr
          hintmask 00010000
          -86 callsubr
        </CharString>
        <CharString name="b">
          0 226 callgsubr
          74 61 0 189 callgsubr
          hintmask 0010000010000000
          172 callgsubr
          hintmask 0001101000000000
          59 10 -50 63 -104 hhcurveto
          -202 -10 callgsubr
          25 hhcurveto
          hintmask 1000010000000000
          -17 callgsubr
          hintmask 1101101100000000
          89 callsubr
          hintmask 1100010010000000
          138 callgsubr
          hintmask 0000000100000000
          85 16 -54 -28 -5 hvcurveto
          endchar
        </CharString>
        <CharString name="backslash">
          197 callsubr
          hstem
          458 -48 rmoveto
          1 8 -2 10 -2 6 -216 691 rcurveline
          10 -3 -5 17 -22 hhcurveto
          -20 -18 -17 -18 -3 hvcurveto
          -1 -8 2 -10 2 -6 216 -691 rcurveline
          -10 3 5 -17 22 hhcurveto
          20 18 17 18 3 hvcurveto
          endchar
        </CharString>
        <CharString name="baht">
          152 callsubr
          hstem
          282 62 0 62 0 62 cntrmask 00011100
          510 167 rmoveto
          11 69 -37 65 -78 19 68 22 53 52 10 62 rrcurveto
          73 12 -47 82 -111 hhcurveto
          -3 hlineto
          10 62 rlineto
          135 callsubr
          -18 -15 -14 -17 -3 hvcurveto
          -11 -62 rlineto
          -160 hlineto
          -14 41 callgsubr
          27 53 callsubr
          -27 hlineto
          -16 -31 callsubr
          26 0 14 hhcurveto
          161 hlineto
          -10 -62 rlineto
          201 callsubr
          9 62 rlineto
          24 hlineto
          113 75 89 78 13 hvcurveto
          -42 288 rmoveto
          -6 -38 -37 -58 -81 -10 34 201 rcurveline
          84 11 -62 -33 -5 hvcurveto
          -186 -107 rmoveto
          -64 hlineto
          34 202 rlineto
          64 hlineto
          125 -381 rmoveto
          -49 -8 -49 -59 -87 hhcurveto
          -1 hlineto
          38 226 rlineto
          12 hlineto
          85 18 -73 -45 -8 hvcurveto
          -207 -108 rmoveto
          -64 hlineto
          38 226 rlineto
          63 hlineto
          endchar
        </CharString>
        <CharString name="bar">
          197 callsubr
          hstem
          221 70 44 70 vstem
          291 -36 rmoveto
          57 callgsubr
          endchar
        </CharString>
        <CharString name="bigcircle">
          194 callgsubr
          449 38 vstem
          -55 callgsubr
          endchar
        </CharString>
        <CharString name="blanksymbol">
          0 226 callgsubr
          74 61 0 61 -30 189 callgsubr
          hintmask 0010000001000000
          172 callgsubr
          hintmask 0001000000000000
          10 57 -47 60 -96 5 rrcurveto
          hintmask 0000100000000000
          43 31 7 6 6 9 2 9 rlinecurve
          135 callsubr
          -8 -7 -3 -4 -6 hvcurveto
          hintmask 0001000000000000
          -106 -79 rlineto
          -118 hlineto
          hintmask 0010110100000000
          -14 -28 -83 callsubr
          25 0 25 hhcurveto
          -6 -32 -44 -33 -8 -6 -6 -9 -1 -9 rlinecurve
          -17 -3 12 -14 17 hhcurveto
          7 7 2 5 6 hvcurveto
          hintmask 1000001000000000
          -40 -237 rlineto
          hintmask 1101010110000000
          89 callsubr
          hintmask 1100001001000000
          138 callgsubr
          hintmask 0000000010000000
          85 16 -54 -28 -5 hvcurveto
          endchar
        </CharString>
        <CharString name="braceleft">
          -83 195 callgsubr
          cntrmask 11100000
          458 -52 rmoveto
          29 5 -25 1 -9 hhcurveto
          -135 3 6 36 5 31 27 161 rcurveline
          4 25 4 41 -50 30 46 25 21 33 5 25 22 132 rcurveline
          4 25 7 40 4 8 rrcurveto
          38 24 89 2 35 hhcurveto
          6 21 6 24 4 hvcurveto
          31 5 -24 0 -18 hhcurveto
          -70 -111 -13 -88 -32 hvcurveto
          -2 -6 -8 -50 -5 -28 -15 -90 rcurveline
          -6 -36 -3 -15 -38 -16 rrcurveto
          -15 -39 -50 -1 -23 hhcurveto
          -6 -21 -6 -24 -4 hvcurveto
          -30 -5 24 -1 10 hhcurveto
          26 -1 108 -3 -7 -54 -27 -166 rcurveline
          -5 -30 -8 -45 47 -29 rrcurveto
          -23 38 54 -7 48 hhcurveto
          18 58 callgsubr
          endchar
        </CharString>
        <CharString name="braceright">
          -83 195 callgsubr
          196 69 57 69 cntrmask 11100000
          518 305 rmoveto
          30 5 -24 1 -10 hhcurveto
          -24 1 -109 2 7 56 28 167 rcurveline
          4 28 8 45 -47 29 rrcurveto
          26 -44 -62 4 -35 hhcurveto
          -17 -25 -90 callgsubr
          -26 -5 19 -4 14 hhcurveto
          137 -2 -6 -36 -5 -33 -27 -161 rcurveline
          -7 -40 10 -32 39 -23 -61 -32 -10 -47 -1 -4 -29 -178 rcurveline
          -5 -29 -6 -36 -146 -2 rrcurveto
          -6 -21 -6 -24 -4 hvcurveto
          -31 -5 25 0 17 hhcurveto
          87 98 20 81 29 hvcurveto
          2 6 8 50 5 28 15 90 rcurveline
          6 36 3 15 38 16 rrcurveto
          15 39 48 1 24 hhcurveto
          6 21 6 24 4 hvcurveto
          endchar
        </CharString>
        <CharString name="bracketleft">
          -83 61 655 61 hstem
          474 -53 -12 callsubr
          -152 hlineto
          110 655 rlineto
          152 4 callgsubr
          -24 0 -16 hhcurveto
          -181 hlineto
          -33 -9 -9 -32 -5 hvcurveto
          -116 -695 rlineto
          -31 -5 4 -10 34 hhcurveto
          181 -56 callsubr
          endchar
        </CharString>
        <CharString name="bracketright">
          -83 61 655 61 hstem
          295 -42 rmoveto
          116 695 rlineto
          31 5 -4 10 -34 hhcurveto
          -181 -95 callsubr
          152 hlineto
          -110 -655 rlineto
          -152 -95 callsubr
          181 164 callsubr
        </CharString>
        <CharString name="breve">
          504 64 49 -20 hstem
          -6 callsubr
          endchar
        </CharString>
        <CharString name="breve.cap">
          492 64 49 -20 hstem
          -6 callgsubr
          endchar
        </CharString>
        <CharString name="breve.ts1">
          497 65 50 -20 hstem
          556 581 rmoveto
          16 3 -7 15 -22 hhcurveto
          -11 -11 -5 -9 -6 hvcurveto
          -5 -6 -1 -8 -5 -5 rrcurveto
          -15 -18 -36 -2 -32 hhcurveto
          -79 hlineto
          -31 -55 0 17 -14 hvcurveto
          -4 5 3 7 -2 6 rrcurveto
          10 -5 -9 5 -11 hhcurveto
          -3 -2 0 -1 -3 hvcurveto
          -18 -3 -8 -14 -2 -15 rrcurveto
          -77 -13 123 -5 55 hhcurveto
          32 hlineto
          70 113 3 81 14 hvcurveto
          endchar
        </CharString>
        <CharString name="brokenbar">
          197 callsubr
          hstemhm
          221 70 -24 70 -48 70 -24 70 hintmask 01000100
          359 374 rmoveto
          46 273 72 callgsubr
          hintmask 00001000
          -46 -273 rlineto
          -18 -3 14 -13 19 hhcurveto
          19 18 13 18 3 hvcurveto
          -68 -410 rmoveto
          hintmask 00010000
          46 273 rlineto
          18 3 -14 13 -19 hhcurveto
          -19 -18 -13 -18 -3 hvcurveto
          hintmask 10100000
          -46 -273 rlineto
          -12 -2 -6 -35 35 hhcurveto
          35 6 35 12 2 hvcurveto
          endchar
        </CharString>
        <CharString name="bullet">
          96 318 hstem
          126 callsubr
          endchar
        </CharString>
        <CharString name="c">
          65 callgsubr
          hstemhm
          86 69 205 69 0 69 hintmask 11101000
          -43 callsubr
          hintmask 11110000
          28 callsubr
          hintmask 00001000
          154 callgsubr
          endchar
        </CharString>
        <CharString name="cacute">
          214 callsubr
          86 69 205 69 0 69 hintmask 11001010
          -43 callsubr
          hintmask 11001100
          28 callsubr
          hintmask 00000010
          154 callgsubr
          hintmask 00110000
          3 504 -104 callgsubr
        </CharString>
        <CharString name="caron">
          492 572 -73 callsubr
        </CharString>
        <CharString name="caron.cap">
          478 527 -80 callgsubr
        </CharString>
        <CharString name="caron.ts1">
          498 -21 141 -20 hstem
          543 577 rmoveto
          16 3 -7 25 -22 hhcurveto
          -12 -13 -8 -5 -11 hvcurveto
          -89 -41 -27 -12 rlineto
          -2 -3 -5 -2 -4 hhcurveto
          -2 hlineto
          -4 1 -4 3 -4 2 -21 11 rcurveline
          -67 36 rlineto
          6 -11 -12 11 -15 hhcurveto
          0 -5 0 -2 -1 vhcurveto
          -17 -3 -15 -24 -2 -13 -3 -22 28 -10 21 -10 82 -41 rcurveline
          23 -11 rlineto
          -2 6 6 -4 7 hhcurveto
          18 36 20 11 24 hvcurveto
          71 30 20 8 28 8 4 23 rlinecurve
          endchar
        </CharString>
        <CharString name="ccaron">
          65 callgsubr
          hstemhm
          86 69 205 69 0 69 hintmask 11101000
          -43 callsubr
          hintmask 11110000
          28 callsubr
          hintmask 00001000
          154 callgsubr
          hintmask 00000000
          27 484 -73 callsubr
        </CharString>
        <CharString name="ccedilla">
          65 callgsubr
          hstemhm
          86 69 199 69 -63 69 -6 69 -63 69 hintmask 11100010
          498 130 rmoveto
          32 5 -27 0 -8 hhcurveto
          -31 -5 -20 -13 -3 hvcurveto
          -56 -15 -75 -20 -45 hhcurveto
          -96 -59 84 99 16 hvcurveto
          103 18 90 80 90 hhcurveto
          43 63 -20 -68 3 hvcurveto
          hintmask 01000100
          -12 2 -16 28 35 3 23 18 3 vhcurveto
          16 95 rlineto
          15 3 4 26 -31 hhcurveto
          -16 -8 -7 -28 -22 hvcurveto
          hintmask 11101000
          11 -15 -41 24 -63 hhcurveto
          -130 -121 -110 -134 -23 hvcurveto
          -21 -129 78 -111 129 -4 -3 -16 rcurveline
          146 callgsubr
          rrcurveto
          hintmask 00010010
          -4 callsubr
          160 callsubr
          2 7 rcurveline
          82 17 63 51 11 64 rrcurveto
          endchar
        </CharString>
        <CharString name="ccircumflex">
          65 callgsubr
          hstemhm
          86 69 205 69 0 69 hintmask 11101000
          -43 callsubr
          hintmask 11110000
          28 callsubr
          hintmask 00001000
          154 callgsubr
          hintmask 00000000
          23 459 -82 callsubr
          endchar
        </CharString>
        <CharString name="cdotaccent">
          65 callgsubr
          72 100 hstemhm
          86 69 184 100 -79 69 0 69 hintmask 11010010
          -43 callsubr
          hintmask 11010100
          28 callsubr
          hintmask 00000010
          154 callgsubr
          hintmask 00101000
          -59 472 -34 callsubr
          endchar
        </CharString>
        <CharString name="cedilla">
          39 callsubr
        </CharString>
        <CharString name="cedilla.dup">
          39 callsubr
        </CharString>
        <CharString name="cent">
          419 61 hstemhm
          86 69 93 62 -53 62 -52 62 9 62 -53 62 -9 62 -33 69 hintmask 0000100010000000
          498 130 rmoveto
          32 5 -27 0 -8 hhcurveto
          -31 -5 -20 -13 -3 hvcurveto
          -12 -43 -46 -22 -42 -8 60 358 rcurveline
          hintmask 1000000100000000
          36 -9 35 -24 2 -50 rrcurveto
          -12 2 -16 28 35 3 23 18 3 vhcurveto
          16 95 rlineto
          15 3 4 26 -31 hhcurveto
          -16 -8 -7 -28 -22 hvcurveto
          -11 9 -28 16 -40 7 rrcurveto
          hintmask 0000001000000000
          9 57 rlineto
          135 callsubr
          -17 -16 -14 -17 -3 hvcurveto
          hintmask 0101010000000000
          -9 -55 -122 -12 -109 -105 -21 -126 rlinecurve
          -20 -124 71 -107 120 -12 rrcurveto
          hintmask 0010000000000000
          -9 -55 rlineto
          205 callgsubr
          hintmask 0101000010000000
          9 56 92 12 75 54 12 70 rlinecurve
          -231 -75 rmoveto
          -79 14 -47 78 14 89 16 93 75 75 82 13 rrcurveto
          hintmask 0000100000000000
          endchar
        </CharString>
        <CharString name="cent.oldstyle">
          -8 61 355 61 -50 61 0 61 hstemhm
          86 69 205 69 -36 69 -33 69 hintmask 11000001
          498 130 rmoveto
          32 5 -27 0 -8 hhcurveto
          -31 -5 -20 -13 -3 hvcurveto
          -56 -15 -75 -20 -45 hhcurveto
          -7 -6 0 1 -6 hvcurveto
          132 354 rlineto
          hintmask 00010010
          28 -12 25 -23 2 -42 rrcurveto
          -12 2 -16 28 35 3 23 18 3 vhcurveto
          16 95 rlineto
          15 3 4 26 -31 hhcurveto
          -16 -8 -7 -28 -22 hvcurveto
          hintmask 01000001
          -9 6 -16 11 -25 7 22 59 rcurveline
          19 7 -11 18 -20 hhcurveto
          hintmask 00010010
          -15 -13 -10 -14 -6 hvcurveto
          -23 -61 rlineto
          hintmask 10011100
          -10 hlineto
          -130 -121 -110 -134 -23 hvcurveto
          -16 -101 44 -89 81 -36 -24 -66 rcurveline
          -19 -8 11 -18 20 hhcurveto
          15 14 11 14 6 hvcurveto
          23 62 rlineto
          -1 9 10 -1 9 hhcurveto
          hintmask 00101001
          154 callgsubr
          -150 289 rmoveto
          -130 -345 -48 31 -26 62 11 69 rlinecurve
          17 101 87 79 89 3 rrcurveto
          endchar
        </CharString>
        <CharString name="centigrade">
          -10 61 438 61 0 61 -60 61 -50 61 hstemhm
          452 70 hintmask 10001100
          522 172 rmoveto
          25 4 -16 6 -18 hhcurveto
          -20 -16 -7 -68 callsubr
          -33 -9 -31 -82 -58 hhcurveto
          -53 -19 68 47 -8 hvcurveto
          -7 43 2 46 7 45 13 79 27 91 64 63 rrcurveto
          16 15 21 13 21 hhcurveto
          72 -19 -109 -34 6 hvcurveto
          -15 3 14 -3 14 hhcurveto
          30 7 20 18 3 hvcurveto
          25 147 rlineto
          23 4 -8 14 -20 hhcurveto
          -21 -13 -18 -17 -8 hvcurveto
          -21 20 -22 10 -30 5 rrcurveto
          -8 hlineto
          -78 -58 -67 -64 -38 hvcurveto
          -34 -58 -20 -66 -10 -63 -17 -104 4 -143 87 -53 rrcurveto
          -10 16 19 -5 21 hhcurveto
          93 77 90 92 16 hvcurveto
          -307 379 rmoveto
          hintmask 00010000
          26 4 -15 35 -38 hhcurveto
          hintmask 00100000
          -3 -3 0 -1 -3 hvcurveto
          -37 -4 -22 -31 -4 -26 rrcurveto
          hintmask 01010000
          -26 -5 16 -35 38 hhcurveto
          41 26 33 29 5 hvcurveto
          -54 hmoveto
          -4 -1 -4 -3 -4 hhcurveto
          -3 -2 2 3 1 hvcurveto
          1 vlineto
          4 5 3 4 3 2 -2 -4 -1 vhcurveto
          endchar
        </CharString>
        <CharString name="circumflex">
          488 547 -82 callsubr
          endchar
        </CharString>
        <CharString name="circumflex.cap">
          481 540 -97 callsubr
          endchar
        </CharString>
        <CharString name="circumflex.dup">
          488 547 -82 callsubr
          endchar
        </CharString>
        <CharString name="colon">
          0 125 181 125 hstem
          386 368 52 callgsubr
          -51 -306 52 callgsubr
          endchar
        </CharString>
        <CharString name="colonmonetary">
          561 61 hstemhm
          91 69 88 62 -43 62 22 62 -43 62 80 69 hintmask 10011010
          512 168 rmoveto
          33 6 -24 0 -11 hhcurveto
          -9 -23 0 -29 -7 hvcurveto
          -18 -75 -54 -32 -43 -10 84 501 rcurveline
          42 -15 31 -42 -65 vvcurveto
          -17 1 -1 -16 30 hhcurveto
          35 3 21 20 4 hvcurveto
          23 139 rlineto
          16 3 4 25 -30 hhcurveto
          -18 -7 -10 -7 -6 hvcurveto
          -3 -4 0 -2 -17 -25 -21 21 -29 16 -34 7 rrcurveto
          hintmask 01100110
          9 55 rlineto
          135 callsubr
          -17 -16 -14 -17 -3 hvcurveto
          -8 -52 -122 -15 -120 -129 -29 -171 rlinecurve
          -29 -172 77 -128 117 -15 -8 -53 rcurveline
          205 callgsubr
          9 54 99 17 81 79 13 80 rlinecurve
          -245 -115 rmoveto
          -77 20 -52 99 22 134 rrcurveto
          hintmask 00011000
          22 134 87 99 82 19 rrcurveto
          endchar
        </CharString>
        <CharString name="comma">
          -118 -21 139 125 hstem
          350 25 rmoveto
          61 10 -32 39 -44 hhcurveto
          -40 -28 -30 -32 -5 hvcurveto
          -38 -7 25 -25 33 hhcurveto
          6 7 1 2 8 hvcurveto
          -26 -62 -50 -16 -12 -4 -11 -3 -19 -5 -3 -20 rrcurveto
          -15 -2 12 -17 17 hhcurveto
          32 111 54 110 18 hvcurveto
          endchar
        </CharString>
        <CharString name="copyleft">
          0 38 449 38 hstemhm
          44 38 112 38 0 38 261 38 hintmask 11101100
          -55 callgsubr
          -85 hmoveto
          98 16 -48 72 -70 hhcurveto
          -27 -26 -10 -15 -21 hvcurveto
          -5 13 0 1 2 vvcurveto
          4 -3 -1 5 -10 hhcurveto
          -16 -2 -13 -9 -1 hvcurveto
          -13 -75 rlineto
          -11 -2 -2 -11 19 hhcurveto
          16 3 9 9 2 hvcurveto
          44 16 34 24 32 hhcurveto
          48 37 -57 -80 -13 hvcurveto
          -81 -14 -55 -57 -49 hhcurveto
          -23 -41 12 53 5 hvcurveto
          16 1 -13 0 -4 hhcurveto
          hintmask 00010000
          -6 -13 0 -18 -3 hvcurveto
          -48 -8 38 -48 63 hhcurveto
          70 72 72 99 17 hvcurveto
          endchar
        </CharString>
        <CharString name="copyright">
          0 38 449 38 hstemhm
          44 38 275 38 -15 38 -25 38 100 38 hintmask 11110010
          -55 callgsubr
          -138 -75 rmoveto
          18 3 -13 0 -6 hhcurveto
          -4 -13 0 -16 -3 hvcurveto
          -52 -13 -45 -13 -23 hhcurveto
          -49 -37 57 81 14 hvcurveto
          80 13 57 57 48 hhcurveto
          hintmask 00001000
          32 26 -24 -44 hvcurveto
          hintmask 00010000
          -9 -1 -9 16 vhcurveto
          hintmask 00001000
          19 2 11 11 2 hvcurveto
          hintmask 00000100
          13 75 rlineto
          hintmask 00001000
          9 1 2 13 -16 hhcurveto
          -10 -3 -5 -4 -3 hvcurveto
          -2 -2 0 -1 -9 -14 rrcurveto
          16 -15 -24 10 -27 hhcurveto
          -70 -72 -72 -98 -16 hvcurveto
          -99 -17 48 -72 70 hhcurveto
          hintmask 00000100
          63 54 48 48 8 hvcurveto
          endchar
        </CharString>
        <CharString name="currency">
          156 -20 21 70 158 70 22 -21 hstemhm
          129 70 -34 70 22 70 65 70 -35 70 hintmask 0000000010000000
          446 147 rmoveto
          29 25 -21 24 -7 9 -20 23 rcurveline
          hintmask 0000000100000000
          18 23 12 26 5 29 5 29 -4 26 -10 23 27 22 rcurveline
          hintmask 0011101010000000
          9 9 29 25 -21 24 -19 25 -30 -25 -10 -8 -26 -23 rcurveline
          14 -20 -25 8 -28 hhcurveto
          -29 -28 -8 -14 -25 hvcurveto
          -20 24 -7 8 -20 25 -29 -25 rlinecurve
          -30 -25 21 -24 7 -9 20 -24 rcurveline
          hintmask 0000010000000000
          -17 -22 -12 -27 -5 -28 -5 -28 4 -27 9 -22 -27 -23 rcurveline
          hintmask 1100100000000000
          -9 -9 -29 -25 21 -24 20 -25 29 25 10 8 27 23 rcurveline
          -14 20 25 -8 29 hhcurveto
          28 28 8 14 25 hvcurveto
          19 -24 8 -8 19 -25 30 25 rlinecurve
          -54 159 rmoveto
          -43 -7 -41 -36 -43 hhcurveto
          hintmask 0010011100000000
          -44 -29 36 43 7 hvcurveto
          43 7 41 36 44 hhcurveto
          43 29 -36 -43 -7 hvcurveto
          endchar
        </CharString>
        <CharString name="cwm">
          -107 endchar
        </CharString>
        <CharString name="cwmascender">
          -107 endchar
        </CharString>
        <CharString name="cwmcapital">
          -107 endchar
        </CharString>
        <CharString name="d">
          0 140 callsubr
          hintmask 01101000
          16 callgsubr
          hintmask 10010000
          -17 callgsubr
          hintmask 10100100
          8 callgsubr
          hintmask 10010000
          -92 hlineto
          hintmask 01001100
          123 callsubr
          endchar
        </CharString>
        <CharString name="dagger">
          -195 -21 613 67 241 -20 hstemhm
          187 79 -8 79 -4 79 hintmask 01110100
          529 430 163 callgsubr
          5 20 5 28 24 65 12 37 14 37 6 37 rrcurveto
          8 1 6 33 -39 hhcurveto
          -40 -6 -32 -9 -1 hvcurveto
          -6 -35 1 -58 -24 vvcurveto
          2 -46 -3 -32 -4 -29 -12 1 -23 151 callgsubr
          36 8 6 26 hvcurveto
          3 1 31 7 23 2 -6 -25 -6 -20 -10 -25 rrcurveto
          hintmask 11001000
          -29 -72 -2 -8 -9 -53 -25 -151 -15 -168 -5 -95 rrcurveto
          -14 -1 0 -6 13 hhcurveto
          14 1 5 13 5 hvcurveto
          15 50 12 53 12 51 14 63 23 103 16 96 9 54 2 7 -5 71 -2 23 0 21 2 27 13 -1 22 -4 23 -5 rrcurveto
          -6 21 33 -8 24 hhcurveto
          42 7 28 5 1 hvcurveto
          endchar
        </CharString>
        <CharString name="daggerdbl">
          -184 -21 194 66 389 67 194 -20 hstem
          115 79 1 79 1 79 cntrmask 00001110
          537 477 163 callgsubr
          6 30 14 34 6 14 13 33 14 40 5 28 rrcurveto
          7 1 6 32 -40 hhcurveto
          -12 -28 -3 -36 -6 hvcurveto
          -3 -20 0 -29 2 -35 1 -41 2 -28 -4 -26 -13 1 -22 151 callgsubr
          35 8 6 26 hvcurveto
          4 1 31 7 23 2 -6 -30 -14 -34 -6 -14 -12 -33 -15 -40 -5 -28 190 callgsubr
          4 20 -1 29 -2 35 -1 41 -1 28 3 26 13 -1 22 -4 22 -5 rrcurveto
          -6 21 34 -8 24 hhcurveto
          42 7 28 5 1 hvcurveto
          -76 -455 rmoveto
          17 3 -12 16 -25 hhcurveto
          -23 -21 -3 -8 -38 hvcurveto
          -32 -8 -8 -2 -27 -2 7 28 9 24 15 42 22 56 4 23 1 5 rrcurveto
          35 6 -25 4 -13 hhcurveto
          -35 -10 -25 -14 -2 hvcurveto
          -5 -29 3 -43 1 -34 2 -11 0 -31 -3 -30 -26 2 -3 1 -46 11 rrcurveto
          9 -36 -20 0 -9 hhcurveto
          -29 -14 -20 -13 -2 hvcurveto
          -15 -3 9 -18 28 hhcurveto
          29 29 6 4 14 hvcurveto
          48 10 8 1 20 2 -7 -28 -9 -24 -15 -42 -22 -56 -4 -23 -1 -5 190 callgsubr
          5 29 -2 43 -1 34 -2 11 -1 31 3 30 27 -2 4 -1 45 -11 rrcurveto
          -9 37 21 0 6 hhcurveto
          28 15 18 15 3 hvcurveto
          endchar
        </CharString>
        <CharString name="dblbracketleft">
          -82 70 637 70 1 -20 hstemhm
          305 70 36 70 hintmask 11011000
          488 -47 rmoveto
          19 3 -4 16 -28 hhcurveto
          -84 hlineto
          106 637 rlineto
          68 hlineto
          5 6 -1 6 hhcurveto
          28 9 18 19 3 hvcurveto
          hintmask 00100000
          20 4 -8 15 -25 hhcurveto
          hintmask 01000000
          -7 -7 -1 -6 hhcurveto
          -237 hlineto
          hintmask 10100000
          -7 -7 1 -8 hhcurveto
          -26 -13 -13 -25 -4 hvcurveto
          -117 -701 rlineto
          -28 -5 9 -11 28 hhcurveto
          280 hlineto
          28 7 18 17 3 hvcurveto
          -183 35 rmoveto
          -92 hlineto
          hintmask 11011000
          106 637 rlineto
          92 hlineto
          endchar
        </CharString>
</ttFont>
